<?xml version="1.0" encoding="UTF-8"?>
<svg width="6000px" height="170px" viewBox="0 0 6000 170" version="1.1" xmlns="http://www.w3.org/2000/svg" xmlns:xlink="http://www.w3.org/1999/xlink">
    <!-- Generator: Sketch 51.3 (57544) - http://www.bohemiancoding.com/sketch -->
    <title>drink_medium</title>
    <desc>Created with Sketch.</desc>
    <defs></defs>
    <g id="UI" stroke="none" stroke-width="1" fill="none" fill-rule="evenodd">
        <path d="M0,170 L6000,170 L6000,0.401524091 C6000,-0.835201252 5991.69827,0.924279422 5975.09481,5.67995624 C5960.80964,9.77162509 5944.22945,10.005486 5929.63078,6.32121927 C5914.64663,2.53966681 5897.70212,2.53966681 5882.71797,6.32121927 C5867.73381,10.1027717 5850.78931,10.1027717 5835.80516,6.32121927 C5820.821,2.53966681 5803.8765,2.53966681 5788.89234,6.32121927 C5773.90819,10.1027717 5756.96369,10.1027717 5741.97953,6.32121927 C5726.99538,2.53966681 5710.05087,2.53966681 5695.06672,6.32121927 C5680.08256,10.1027717 5663.13806,10.1027717 5648.15391,6.32121927 C5633.16975,2.53966681 5616.22525,2.53966681 5601.24109,6.32121927 C5586.25694,10.1027717 5569.31244,10.1027717 5554.32828,6.32121927 C5539.34413,2.53966681 5522.39962,2.53966681 5507.41547,6.32121927 C5491.66387,10.2964513 5475.7666,11.2071483 5460.50265,9.28106686 L5454.48664,8.52193563 C5442.89187,7.05884971 5431.06908,6.32121927 5419.21341,6.32121927 C5396.1106,6.32121927 5384.28781,5.58358883 5372.69305,4.12050292 L5366.67703,3.36137168 C5351.41309,1.43529021 5335.51581,2.34598723 5321.16045,5.96885157 C5304.78006,10.1027717 5287.83556,10.1027717 5272.8514,6.32121927 C5257.86725,2.53966681 5240.92275,2.53966681 5225.93859,6.32121927 C5210.95444,10.1027717 5194.00993,10.1027717 5179.02578,6.32121927 C5163.27418,2.34598723 5147.37691,1.43529021 5132.11297,3.36137168 C5116.64935,5.31264922 5100.66377,5.31264922 5085.20015,3.36137168 C5069.93621,1.43529021 5054.03894,2.34598723 5039.68358,5.96885157 C5023.30319,10.1027717 5006.35868,10.1027717 4991.37453,6.32121927 C4976.39037,2.53966681 4959.44587,2.53966681 4944.46172,6.32121927 C4929.47756,10.1027717 4912.53306,10.1027717 4897.5489,6.32121927 C4881.79731,2.34598723 4865.90004,1.43529021 4850.63609,3.36137168 C4835.17247,5.31264922 4819.1869,5.31264922 4803.72328,3.36137168 C4788.45933,1.43529021 4772.56206,2.34598723 4758.2067,5.96885157 C4741.82631,10.1027717 4724.88181,10.1027717 4709.89765,6.32121927 C4694.9135,2.53966681 4677.969,2.53966681 4662.98484,6.32121927 C4648.00069,10.1027717 4631.05618,10.1027717 4616.07203,6.32121927 C4600.32043,2.34598723 4584.42316,1.43529021 4569.15922,3.36137168 L4548.31144,5.99204958 C4546.5798,6.21055596 4544.82701,6.20145121 4543.09774,5.96496736 L4502.80656,0.455009489 C4500.69047,0.165625885 4498.54168,0.217062278 4496.44185,0.607364033 C4490.30087,1.74880858 4483.31963,3.43967265 4475.49815,5.67995624 C4461.21297,9.77162509 4444.63278,10.005486 4430.03412,6.32121927 C4415.04996,2.53966681 4398.10546,2.53966681 4383.1213,6.32121927 C4368.13715,10.1027717 4351.19265,10.1027717 4336.20849,6.32121927 C4321.22434,2.53966681 4304.27983,2.53966681 4289.29568,6.32121927 C4274.31152,10.1027717 4257.36702,10.1027717 4242.38287,6.32121927 C4227.39871,2.53966681 4210.45421,2.53966681 4195.47005,6.32121927 C4180.4859,10.1027717 4163.5414,10.1027717 4148.55724,6.32121927 C4133.57308,2.53966681 4116.62858,2.53966681 4101.64443,6.32121927 C4086.66027,10.1027717 4069.71577,10.1027717 4054.73161,6.32121927 C4039.74746,2.53966681 4022.80296,2.53966681 4007.8188,6.32121927 C3992.0672,10.2964513 3976.16993,11.2071483 3960.90599,9.28106686 L3954.88997,8.52193563 C3943.29521,7.05884971 3931.47242,6.32121927 3919.61674,6.32121927 C3896.51394,6.32121927 3884.69115,5.58358883 3873.09638,4.12050292 L3867.08036,3.36137168 C3851.81642,1.43529021 3835.91915,2.34598723 3821.56379,5.96885157 C3805.1834,10.1027717 3788.23889,10.1027717 3773.25474,6.32121927 C3758.27058,2.53966681 3741.32608,2.53966681 3726.34193,6.32121927 C3711.35777,10.1027717 3694.41327,10.1027717 3679.42911,6.32121927 C3663.67752,2.34598723 3647.78025,1.43529021 3632.5163,3.36137168 C3617.05268,5.31264922 3601.06711,5.31264922 3585.60349,3.36137168 C3570.33954,1.43529021 3554.44227,2.34598723 3540.08691,5.96885157 C3523.70652,10.1027717 3506.76202,10.1027717 3491.77786,6.32121927 C3476.79371,2.53966681 3459.84921,2.53966681 3444.86505,6.32121927 C3429.8809,10.1027717 3412.93639,10.1027717 3397.95224,6.32121927 C3382.20064,2.34598723 3366.30337,1.43529021 3351.03943,3.36137168 C3335.57581,5.31264922 3319.59023,5.31264922 3304.12661,3.36137168 C3288.86267,1.43529021 3272.9654,2.34598723 3258.61003,5.96885157 C3242.22965,10.1027717 3225.28514,10.1027717 3210.30099,6.32121927 C3195.31683,2.53966681 3178.37233,2.53966681 3163.38818,6.32121927 C3148.40402,10.1027717 3131.45952,10.1027717 3116.47536,6.32121927 C3100.72376,2.34598723 3084.82649,1.43529021 3069.56255,3.36137168 L3046.10614,6.32121927 C3019.26943,1.7937647 3003.94677,-0.301661647 3000.13818,0.0349402259 C2997.86364,-0.178255756 2989.78474,1.70341817 2975.90148,5.67995624 C2961.6163,9.77162509 2945.03612,10.005486 2930.43745,6.32121927 C2915.4533,2.53966681 2898.50879,2.53966681 2883.52464,6.32121927 C2868.54048,10.1027717 2851.59598,10.1027717 2836.61182,6.32121927 C2821.62767,2.53966681 2804.68317,2.53966681 2789.69901,6.32121927 C2774.71486,10.1027717 2757.77035,10.1027717 2742.7862,6.32121927 C2727.80204,2.53966681 2710.85754,2.53966681 2695.87339,6.32121927 C2680.88923,10.1027717 2663.94473,10.1027717 2648.96057,6.32121927 C2633.97642,2.53966681 2617.03192,2.53966681 2602.04776,6.32121927 C2587.06361,10.1027717 2570.1191,10.1027717 2555.13495,6.32121927 C2540.15079,2.53966681 2523.20629,2.53966681 2508.22214,6.32121927 C2492.47054,10.2964513 2476.57327,11.2071483 2461.30932,9.28106686 L2455.29331,8.52193563 C2443.69854,7.05884971 2431.87575,6.32121927 2420.02008,6.32121927 C2396.91727,6.32121927 2385.09448,5.58358883 2373.49971,4.12050292 L2367.4837,3.36137168 C2352.21975,1.43529021 2336.32248,2.34598723 2321.96712,5.96885157 C2305.58673,10.1027717 2288.64223,10.1027717 2273.65807,6.32121927 C2258.67392,2.53966681 2241.72942,2.53966681 2226.74526,6.32121927 C2211.76111,10.1027717 2194.8166,10.1027717 2179.83245,6.32121927 C2164.08085,2.34598723 2148.18358,1.43529021 2132.91964,3.36137168 C2117.45602,5.31264922 2101.47044,5.31264922 2086.00682,3.36137168 C2070.74288,1.43529021 2054.84561,2.34598723 2040.49024,5.96885157 C2024.10986,10.1027717 2007.16535,10.1027717 1992.1812,6.32121927 C1977.19704,2.53966681 1960.25254,2.53966681 1945.26839,6.32121927 C1930.28423,10.1027717 1913.33973,10.1027717 1898.35557,6.32121927 C1882.60397,2.34598723 1866.7067,1.43529021 1851.44276,3.36137168 C1835.97914,5.31264922 1819.99357,5.31264922 1804.52995,3.36137168 C1789.266,1.43529021 1773.36873,2.34598723 1759.01337,5.96885157 C1742.63298,10.1027717 1725.68848,10.1027717 1710.70432,6.32121927 C1695.72017,2.53966681 1678.77566,2.53966681 1663.79151,6.32121927 C1648.80735,10.1027717 1631.86285,10.1027717 1616.8787,6.32121927 C1601.1271,2.34598723 1585.22983,1.43529021 1569.96588,3.36137168 L1552.53688,5.56065145 C1548.53598,6.06550473 1544.48607,6.04206379 1540.49129,5.49093143 L1509.49022,1.21393123 C1505.15876,0.616349955 1500.76422,0.639389903 1496.43926,1.28235557 C1489.81219,2.26756291 1483.10071,3.73342981 1476.30482,5.67995624 C1462.01964,9.77162509 1445.43945,10.005486 1430.84078,6.32121927 C1415.85663,2.53966681 1398.91213,2.53966681 1383.92797,6.32121927 C1368.94382,10.1027717 1351.99931,10.1027717 1337.01516,6.32121927 C1322.031,2.53966681 1305.0865,2.53966681 1290.10235,6.32121927 C1275.11819,10.1027717 1258.17369,10.1027717 1243.18953,6.32121927 C1228.20538,2.53966681 1211.26088,2.53966681 1196.27672,6.32121927 C1181.29257,10.1027717 1164.34806,10.1027717 1149.36391,6.32121927 C1134.37975,2.53966681 1117.43525,2.53966681 1102.4511,6.32121927 C1087.46694,10.1027717 1070.52244,10.1027717 1055.53828,6.32121927 C1040.55413,2.53966681 1023.60963,2.53966681 1008.62547,6.32121927 C1002.87363,8.41188265 994.182679,9.39849852 982.552606,9.28106686 C965.107496,9.10491939 961.854147,5.84115623 945.116733,5.67995624 C928.379318,5.51875625 915.587594,8.52193563 903.731919,8.52193563 C880.629112,8.52193563 868.117453,3.76280003 853.021784,3.36137168 C842.958005,3.09375278 832.275484,4.08036865 820.974221,6.32121927 C805.990066,10.1027717 789.045563,10.1027717 774.061408,6.32121927 C759.077253,2.53966681 742.132751,2.53966681 727.148596,6.32121927 C712.16444,10.1027717 695.219938,10.1027717 680.235783,6.32121927 C664.484185,2.34598723 648.586915,1.43529021 633.32297,3.36137168 C617.85935,5.31264922 601.873778,5.31264922 586.410158,3.36137168 C571.146213,1.43529021 555.248943,2.34598723 540.893579,5.96885157 C524.51319,10.1027717 507.568688,10.1027717 492.584532,6.32121927 C477.600377,2.53966681 460.655875,2.53966681 445.67172,6.32121927 C430.687565,10.1027717 413.743062,10.1027717 398.758907,6.32121927 C383.007309,2.34598723 367.110039,1.43529021 351.846095,3.36137168 C336.382475,5.31264922 320.396902,5.31264922 304.933282,3.36137168 C289.669337,1.43529021 273.772067,2.34598723 259.416703,5.96885157 C243.036314,10.1027717 226.091812,10.1027717 211.107657,6.32121927 C196.123502,2.53966681 179.178999,2.53966681 164.194844,6.32121927 C149.210689,10.1027717 132.266187,10.1027717 117.282032,6.32121927 C101.530434,2.34598723 85.6331635,1.43529021 70.3692189,3.36137168 L46.9128126,6.32121927 C15.6376042,1.04497416 0,-0.92825757 0,0.401524091 L0,170 Z" id="drink_medium" fill="#FF8373" fill-rule="nonzero"></path>
    </g>
</svg>