<svg id="1e225a2d-0412-4305-ba09-9643f71173aa" data-name="Calque 1" xmlns="http://www.w3.org/2000/svg" width="15087.01" height="1703.5" viewBox="0 0 15087.01 1703.5">
  <defs>
    <style>
      .f5d2beae-4be0-4054-9813-e376b36880ad {
        fill: #ff7471;
      }
    </style>
  </defs>
  <title>text_4_je-nai-jamais</title>
  <g>
    <path class="f5d2beae-4be0-4054-9813-e376b36880ad" d="M-6592.89-242.61l-138.87,10.92,29.47,374.74q3.51,44.65-35.57,47.74l-36.29,2.85,6.53,83q15.8,4.37,42.58,5.78t44.94,0q67-5.27,95-37.31t22.76-99Z" transform="translate(6774.15 425.67)"/>
    <rect class="f5d2beae-4be0-4054-9813-e376b36880ad" x="-6739.08" y="-374.77" width="139.3" height="94.5" transform="translate(6779.3 -98.18) rotate(-4.5)"/>
    <path class="f5d2beae-4be0-4054-9813-e376b36880ad" d="M-6239-28.25q1.43,24.47-14.13,40.1t-50.5,17.69q-38.44,2.25-57.44-17t-21.34-59.05l276.72-16.23-1.39-23.76q-5.74-97.83-62-142.22t-157.57-38.44q-97.14,5.7-149.47,57.85t-46.76,147.19q5.7,97.14,65.11,141.68t162.13,38.52q97.83-5.74,146.63-46.46t44.87-107.81Zm-76.84-150.46q29.35-1.72,46.75,14.09t19.09,44.46l-135.57,8Q-6381.51-174.85-6315.82-178.71Z" transform="translate(6774.15 425.67)"/>
    <path class="f5d2beae-4be0-4054-9813-e376b36880ad" d="M-5452.13-263.54q-33-35-97.35-33.59A165.94,165.94,0,0,0-5623.64-278q-35,18.27-56,48.13L-5690-285.67-5804-283.19l8,369.51,139.27-3-4.72-216.95q-0.53-24.49,15.2-41.64t41.62-17.71q22.39-.49,35,13.59t13.08,37.87L-5551.76,81l139.27-3-5.21-239.34Q-5419.16-228.55-5452.13-263.54Z" transform="translate(6774.15 425.67)"/>
    <polygon class="f5d2beae-4be0-4054-9813-e376b36880ad" points="1433.81 20.93 1434.5 143.43 1484.19 143.15 1435.21 270.83 1501.71 270.46 1564.65 135.7 1564 20.2 1433.81 20.93"/>
    <path class="f5d2beae-4be0-4054-9813-e376b36880ad" d="M-4754.49-13.73q-5.54-7.75-5.41-19.65l1.41-144.19q0.62-63.69-52.3-92.56t-137.62-29.69q-93.1-.91-143.44,29.4t-50.86,82.81a52.52,52.52,0,0,0,.6,9.81l137.19,1.34,0-2.8q0.16-16.8,16-24.35t37.52-7.33q23.79,0.23,38.74,11.58t14.73,33l-0.18,18.2q-88.2-.86-142.9,9.11t-84,38q-29.33,28.07-29.85,82-1,103.6,129.18,104.87,44.1,0.43,77.12-11.85a225.66,225.66,0,0,0,59.83-33q9.58,21.8,35.72,34.3t66.73,12.9a194.83,194.83,0,0,0,37.13-2.79q16.13-3,24.91-6.06t10.89-4.44l0.79-80.5-25.2-.25Q-4749-6-4754.49-13.73ZM-4899-50.84q-0.21,21.7-21,36.2T-4968.13-.41q-47.61-.46-47.26-35.46,0.21-21.69,28.69-34.37t88-12.09Z" transform="translate(6774.15 425.67)"/>
    <rect class="f5d2beae-4be0-4054-9813-e376b36880ad" x="-4773.47" y="-170.96" width="369.6" height="139.3" transform="translate(2402.78 -4260.28) rotate(-88.55)"/>
    <rect class="f5d2beae-4be0-4054-9813-e376b36880ad" x="-4628.95" y="-446.32" width="94.5" height="139.3" transform="translate(2684.84 -4521.72) rotate(-88.55)"/>
    <path class="f5d2beae-4be0-4054-9813-e376b36880ad" d="M-4197.21,103q-2,44.74-41.17,43l-36.36-1.63-3.73,83.22q15.14,6.28,41.55,11t44.6,5.5q67.13,3,98.89-25.34t34.77-95.49l17.48-389.51-139.16-6.24Z" transform="translate(6774.15 425.67)"/>
    <rect class="f5d2beae-4be0-4054-9813-e376b36880ad" x="-4153.97" y="-429.63" width="94.5" height="139.3" transform="translate(3211.14 -4020.76) rotate(-87.43)"/>
    <path class="f5d2beae-4be0-4054-9813-e376b36880ad" d="M-3584.75,36.13q-5.15-8-4.44-19.89l8.47-144q3.74-63.58-47.7-95t-136-36.4q-92.94-5.47-144.71,22.34T-3964-156.56a52.48,52.48,0,0,0,.12,9.82l137,8.05,0.16-2.8q1-16.77,17.16-23.53t37.84-5.49q23.75,1.4,38.13,13.46t13.09,33.73l-1.07,18.17q-88-5.18-143.17,2.1t-85.79,33.87q-30.67,26.6-33.83,80.4-6.08,103.43,123.89,111.06,44,2.59,77.61-8.06a225.67,225.67,0,0,0,61.37-30q8.5,22.24,34,36t66,16.15a194.82,194.82,0,0,0,37.22-1q16.25-2.2,25.18-4.83t11.1-3.91l4.73-80.36-25.16-1.48Q-3579.62,44.15-3584.75,36.13ZM-3727.31-8q-1.27,21.67-22.75,35.13T-3798.79,39q-47.53-2.79-45.46-37.73,1.27-21.65,30.34-32.93t88.46-7.77Z" transform="translate(6774.15 425.67)"/>
    <path class="f5d2beae-4be0-4054-9813-e376b36880ad" d="M-2983.45-201.51a155.6,155.6,0,0,0-72.2,11.38q-35.23,14.37-59.21,41.92-23.5-65.79-106.51-72.5a162.83,162.83,0,0,0-74.29,11.21q-35.92,14.32-59.21,41.92l-4.62-55.85-113.73-9.18L-3503,135.8l138.85,11.2,17.45-216.3q2-24.42,18.67-39.93t41.12-13.54q20.93,1.69,31.29,16.92t8.44,39L-3265,155l138.85,11.2,17.45-216.3q2-24.42,18.67-39.93t41.12-13.54q20.93,1.69,31.29,16.92t8.44,39l-17.9,221.88,138.85,11.2L-2869-53.23q5.35-66.28-23.15-104.75T-2983.45-201.51Z" transform="translate(6774.15 425.67)"/>
    <path class="f5d2beae-4be0-4054-9813-e376b36880ad" d="M-2418.55,137.69q-4.81-8.22-3.6-20.06l14.5-143.47q6.4-63.37-43.67-96.93t-134.35-42.07q-92.63-9.36-145.52,16.25t-58.17,77.84a52.51,52.51,0,0,0-.29,9.82l136.5,13.8,0.28-2.79q1.69-16.71,18.13-22.79t38-3.9q23.67,2.39,37.53,15t11.67,34.25l-1.83,18.11q-87.75-8.87-143.13-3.91t-87.13,30.24q-31.76,25.28-37.17,78.91-10.42,103.08,119.12,116.17,43.88,4.43,77.88-4.79A225.68,225.68,0,0,0-2557.2,180q7.56,22.58,32.45,37.4t65.28,18.91a194.84,194.84,0,0,0,37.23.6q16.33-1.52,25.36-3.77t11.25-3.44l8.09-80.09-25.07-2.53Q-2413.76,145.92-2418.55,137.69ZM-2559.13,87.6q-2.18,21.6-24.21,34.14t-49.19,9.8q-47.37-4.79-43.84-39.61,2.18-21.58,31.69-31.62t88.71-4.05Z" transform="translate(6774.15 425.67)"/>
    <rect class="f5d2beae-4be0-4054-9813-e376b36880ad" x="-2262.58" y="-278.38" width="94.5" height="139.3" transform="translate(5014.2 -1961.11) rotate(-83.57)"/>
    <rect class="f5d2beae-4be0-4054-9813-e376b36880ad" x="-2430.96" y="-4.66" width="369.6" height="139.3" transform="translate(4714.83 -1748.66) rotate(-83.57)"/>
    <path class="f5d2beae-4be0-4054-9813-e376b36880ad" d="M-1767.58-42.69q-47.51-35.11-121.16-44.19-82-10.1-136.55,12.1t-62.87,89.59q-5.13,41.69,15.62,67.87a134.37,134.37,0,0,0,51.17,39.8q30.41,13.63,78.71,28,40.13,12,57.43,20.47t15.58,22.37q-3.34,27.1-61,20A91.69,91.69,0,0,1-1970.14,199q-18-11.73-15.74-35.44l0.34-2.78-128.53-15.83q-5.39,43.77,18.2,75.59t65,50.67q41.4,18.85,90,24.84,84.75,10.44,140.89-13t64.77-93.58q5.3-43.07-16.06-70a132.82,132.82,0,0,0-52.86-40.36q-31.51-13.4-79.27-26.34-38.83-11.13-55.52-18.83T-1953.94,13Q-1951-10.61-1901-4.46q18.76,2.31,30.41,10.8,17,10.56,14.56,30.71l128.53,15.83Q-1720.07-7.57-1767.58-42.69Z" transform="translate(6774.15 425.67)"/>
    <rect class="f5d2beae-4be0-4054-9813-e376b36880ad" x="-1439.91" y="219.36" width="139.3" height="148.4" transform="translate(5303.44 -678.52) rotate(-82.02)"/>
    <rect class="f5d2beae-4be0-4054-9813-e376b36880ad" x="-1208.37" y="251.82" width="139.3" height="148.4" transform="matrix(0.14, -0.99, 0.99, 0.14, 5470.67, -421.28)"/>
    <rect class="f5d2beae-4be0-4054-9813-e376b36880ad" x="-1670.75" y="186.99" width="139.3" height="148.4" transform="translate(5136.7 -935) rotate(-82.02)"/>
    <rect class="f5d2beae-4be0-4054-9813-e376b36880ad" x="-662.29" y="-59.23" width="94.5" height="139.3" transform="translate(6245.99 -172.88) rotate(-80.91)"/>
    <path class="f5d2beae-4be0-4054-9813-e376b36880ad" d="M-757.52,460.1q-7.08,44.23-45.79,38l-35.94-5.75-13.16,82.25q14.33,8,40,15.62t43.68,10.53q66.36,10.62,101.12-13.95t45.38-90.92l61.6-385-137.55-22Z" transform="translate(6774.15 425.67)"/>
    <path class="f5d2beae-4be0-4054-9813-e376b36880ad" d="M-279.8,149.52q-95.94-16.25-158.64,22.83T-517,305.29Q-533.29,401.23-485.4,458T-336,531.9q96.62,16.36,153.32-12.37t67.92-95L-248,402q-4.09,24.17-22.77,35.9t-53.18,5.9q-38-6.43-52.17-29.42T-383.67,352l273.31,46.29,4-23.47q16.36-96.62-28.48-152.5T-279.8,149.52Zm41.7,160.42L-372,287.26q18-60.13,82.87-49.15,29,4.91,42.4,24.22T-238.1,309.93Z" transform="translate(6774.15 425.67)"/>
    <path class="f5d2beae-4be0-4054-9813-e376b36880ad" d="M478.34,285.23a165.93,165.93,0,0,0-76.5,3.49q-38,10.7-64.7,35.6l1.36-56.72-112.15-21-68,363.29,136.92,25.63,39.92-213.3q4.51-24.08,23.42-37.63T403,375.82q22,4.12,31.42,20.48t5,39.75l-41,218.8L535.4,680.48l44-235.31q12.36-66.05-12.72-107.07T478.34,285.23Z" transform="translate(6774.15 425.67)"/>
    <polygon class="f5d2beae-4be0-4054-9813-e376b36880ad" points="7603.19 672.43 7475.4 647.49 7451.94 767.72 7500.72 777.24 7427.54 892.76 7492.81 905.5 7581.07 785.79 7603.19 672.43"/>
    <path class="f5d2beae-4be0-4054-9813-e376b36880ad" d="M1198.65,717.21q-4-8.66-1.59-20.32l28.67-141.32q12.67-62.42-33.83-100.79t-129.51-55.21Q971.15,381.06,916,401.29T850.36,473a52.52,52.52,0,0,0-1.26,9.74L983.56,510l0.56-2.74q3.34-16.46,20.31-20.88t38.23-.1Q1066,491,1078.5,505t8.21,35.24l-3.62,17.84q-86.44-17.54-142-18.11t-89.71,21.44q-34.11,22-44.83,74.83-20.6,101.54,107,127.42,43.22,8.77,78,3a225.67,225.67,0,0,0,65-21.1q5.28,23.22,28.58,40.44t63.08,25.3a194.82,194.82,0,0,0,37,4.29q16.4,0.11,25.61-1.23c6.13-.9,10-1.66,11.54-2.3l16-78.89-24.7-5Q1202.6,725.87,1198.65,717.21Zm-134.91-63.8q-4.32,21.27-27.48,31.57t-49.92,4.87q-46.66-9.47-39.69-43.77,4.31-21.26,34.67-28.32t88.67,4.78Z" transform="translate(6774.15 425.67)"/>
    <rect class="f5d2beae-4be0-4054-9813-e376b36880ad" x="1189.07" y="588.15" width="369.6" height="139.3" transform="translate(7244.33 2309.68) rotate(-79.2)"/>
    <rect class="f5d2beae-4be0-4054-9813-e376b36880ad" x="1378.26" y="317.59" width="94.5" height="139.3" transform="translate(7552.06 2140.55) rotate(-79.2)"/>
    <path class="f5d2beae-4be0-4054-9813-e376b36880ad" d="M1728.49,915.75q-7.26,44.2-45.94,37.86l-35.92-5.9-13.5,82.2q14.3,8,40,15.79t43.64,10.71q66.31,10.89,101.18-13.53t45.76-90.73l63.19-384.75-137.46-22.57Z" transform="translate(6774.15 425.67)"/>
    <rect class="f5d2beae-4be0-4054-9813-e376b36880ad" x="1825.58" y="397.01" width="94.5" height="139.3" transform="matrix(0.16, -0.99, 0.99, 0.16, 7882.96, 2664.76)"/>
    <path class="f5d2beae-4be0-4054-9813-e376b36880ad" d="M2343.69,906.89q-4.46-8.42-2.75-20.2L2361.49,744q9.07-63-39.54-98.69t-132.46-47.71q-92.15-13.26-146.08,10.09T1982,683a52.53,52.53,0,0,0-.7,9.8l135.8,19.55,0.4-2.77q2.39-16.63,19.08-22t38.17-2.29q23.55,3.39,36.86,16.62t10.21,34.71l-2.59,18q-87.3-12.57-142.84-10T1988,771.19q-32.8,23.92-40.47,77.27Q1932.82,951,2061.69,969.56q43.65,6.28,78-1.5a225.67,225.67,0,0,0,63.68-24.78q6.6,22.88,30.85,38.74t64.42,21.65a194.84,194.84,0,0,0,37.17,2.17q16.38-.83,25.49-2.7t11.39-3l11.47-79.68-24.94-3.59Q2348.14,915.31,2343.69,906.89Zm-138.34-56q-3.09,21.48-25.62,33.09t-49.56,7.72q-47.13-6.78-42.13-41.42,3.09-21.47,33-30.26t88.8-.3Z" transform="translate(6774.15 425.67)"/>
    <path class="f5d2beae-4be0-4054-9813-e376b36880ad" d="M2946.07,688.45a155.6,155.6,0,0,0-72.49,9.31q-35.63,13.36-60.39,40.22-21.61-66.44-104.4-75.51a162.82,162.82,0,0,0-74.58,9.08q-36.31,13.29-60.39,40.21l-3-56-113.42-12.42-40.24,367.4,138.47,15.16,23.62-215.71q2.67-24.35,19.8-39.38t41.49-12.36q20.88,2.29,30.79,17.81t7.33,39.18l-24.23,221.28,138.47,15.16,23.62-215.71q2.67-24.35,19.8-39.38t41.49-12.36q20.88,2.29,30.79,17.81t7.33,39.18l-24.23,221.28,138.47,15.16,26.06-238q7.24-66.1-20.15-105.37T2946.07,688.45Z" transform="translate(6774.15 425.67)"/>
    <path class="f5d2beae-4be0-4054-9813-e376b36880ad" d="M3498.23,1020.07q-5-8.09-4.13-20l10.7-143.8q4.72-63.51-46.23-95.74t-135.42-38.5q-92.85-6.91-145,20.1T3122,821.52a52.42,52.42,0,0,0,0,9.82l136.82,10.18,0.21-2.79q1.25-16.75,17.52-23.26t37.92-4.9q23.72,1.76,37.91,14.05t12.57,33.93l-1.35,18.15q-88-6.54-143.19-.12t-86.3,32.54Q3103,935.22,3099,989q-7.68,103.32,122.16,113,44,3.27,77.72-6.85a225.66,225.66,0,0,0,61.83-29.09q8.16,22.37,33.43,36.53t65.76,17.17a194.84,194.84,0,0,0,37.23-.39q16.28-1.95,25.25-4.44t11.16-3.73l6-80.28-25.13-1.87Q3503.24,1028.16,3498.23,1020.07Zm-141.85-46.35q-1.61,21.65-23.29,34.77t-48.91,11.1q-47.48-3.53-44.87-38.43,1.61-21.63,30.84-32.45t88.57-6.4Z" transform="translate(6774.15 425.67)"/>
    <rect class="f5d2beae-4be0-4054-9813-e376b36880ad" x="3630.23" y="593.89" width="94.5" height="139.3" transform="translate(9594.54 4726.45) rotate(-86.97)"/>
    <rect class="f5d2beae-4be0-4054-9813-e376b36880ad" x="3478.11" y="868.95" width="369.6" height="139.3" transform="translate(9306.07 4972.42) rotate(-86.97)"/>
    <path class="f5d2beae-4be0-4054-9813-e376b36880ad" d="M4098.58,916.23q-32.59-10.51-81.32-19.1-39.67-7.59-57-13.76t-16.88-19.46q0.77-23.78,51.15-22.15,18.89,0.61,31.26,8,17.91,9,17.26,29.28l129.43,4.21q2-60.87-48.5-91.57t-124.64-33.12q-82.56-2.68-134.91,24.33t-54.56,94.88q-1.36,42,21.66,66.19a134.37,134.37,0,0,0,54.54,35q31.51,10.84,80.92,20.84,41,8.34,59,15.23t17.53,20.88q-0.89,27.29-59,25.4a91.69,91.69,0,0,1-40.62-10.78q-18.94-10.07-18.86-33.88l0.09-2.8-129.43-4.21q-1.43,44.08,24.92,73.65T3890,1128q42.93,15.05,91.91,16.64,85.35,2.77,139.15-25.59t56.1-99q1.41-43.37-22.29-68.31A132.82,132.82,0,0,0,4098.58,916.23Z" transform="translate(6774.15 425.67)"/>
    <rect class="f5d2beae-4be0-4054-9813-e376b36880ad" x="4706.37" y="1002.19" width="148.4" height="139.3" transform="translate(6771.06 439.54) rotate(-0.17)"/>
    <rect class="f5d2beae-4be0-4054-9813-e376b36880ad" x="4472.57" y="1002.87" width="148.4" height="139.3" transform="translate(6771.05 438.9) rotate(-0.17)"/>
    <rect class="f5d2beae-4be0-4054-9813-e376b36880ad" x="4239.47" y="1003.55" width="148.4" height="139.3" transform="translate(6771.04 438.22) rotate(-0.17)"/>
    <rect class="f5d2beae-4be0-4054-9813-e376b36880ad" x="5154.63" y="621" width="139.3" height="94.5" transform="translate(6748.25 675.25) rotate(-2.73)"/>
    <path class="f5d2beae-4be0-4054-9813-e376b36880ad" d="M5298.16,755.48L5159,762.11l17.9,375.47q2.13,44.74-37,46.62l-36.36,1.73,4,83.21q15.65,4.85,42.39,7.09t44.92,1.36q67.12-3.2,96.12-34.37t25.8-98.29Z" transform="translate(6774.15 425.67)"/>
    <path class="f5d2beae-4be0-4054-9813-e376b36880ad" d="M5659.15,966.82q1.72,24.45-13.66,40.26t-50.29,18.28q-38.41,2.7-57.64-16.29t-22-58.8l276.51-19.47-1.67-23.74q-6.88-97.75-63.64-141.48t-158-36.59q-97.07,6.83-148.78,59.6t-45,147.73q6.83,97.07,66.76,140.91t162.57,36.62q97.75-6.88,146.08-48.18t43.6-108.33Zm-78.6-149.55q29.33-2.06,46.92,13.54T5647.08,875l-135.46,9.54Q5514.91,821.9,5580.56,817.27Z" transform="translate(6774.15 425.67)"/>
    <path class="f5d2beae-4be0-4054-9813-e376b36880ad" d="M6411.7,682.43q-36.12-31.73-100.08-24.28a165.93,165.93,0,0,0-72,26q-33.09,21.48-51.24,53.19l-15.52-54.57L6059.5,696l42.77,367.12L6240.63,1047l-25.11-215.54q-2.83-24.33,11.21-42.89T6266.51,767q22.24-2.59,36.08,10.24t16.58,36.48l25.76,221.1,138.36-16.12-27.7-237.79Q6447.81,714.16,6411.7,682.43Z" transform="translate(6774.15 425.67)"/>
    <polygon class="f5d2beae-4be0-4054-9813-e376b36880ad" points="13265.52 957.95 13282.34 1079.29 13331.57 1072.47 13299.82 1205.48 13365.69 1196.36 13410.34 1054.49 13394.49 940.08 13265.52 957.95"/>
    <path class="f5d2beae-4be0-4054-9813-e376b36880ad" d="M7135.94,832.66q-11.06,1.78-17.81-4.94t-8.64-18.46L7086.6,666.89q-10.11-62.88-67.14-82.44t-140.65-6.1q-91.92,14.78-136.45,53.13t-36.19,90.19a52.52,52.52,0,0,0,2.25,9.56l135.46-21.78-0.45-2.76q-2.67-16.59,11.66-26.69t35.75-13.55q23.49-3.78,40.13,4.89t20.08,30.09l2.89,18q-87.08,14-139.32,33t-76.42,51.64q-24.19,32.6-15.63,85.82,16.45,102.29,145,81.62,43.54-7,74-24.66A225.66,225.66,0,0,0,6995,904.24q13.12,19.88,41,27.8t67.95,1.48a194.82,194.82,0,0,0,36.13-9q15.39-5.66,23.54-10.16t10-6.21l-12.78-79.48Zm-181.15,22q-18.06,17.79-45,22.13-47,7.56-52.55-27-3.44-21.41,22.49-38.71t84.68-26.73l5,31.1Q6972.84,836.91,6954.79,854.7Z" transform="translate(6774.15 425.67)"/>
    <rect class="f5d2beae-4be0-4054-9813-e376b36880ad" x="7189.49" y="525.42" width="139.3" height="369.6" transform="translate(6765.74 1754.19) rotate(-10.45)"/>
    <rect class="f5d2beae-4be0-4054-9813-e376b36880ad" x="7139.53" y="392.09" width="139.3" height="94.5" transform="translate(6814.04 1740.57) rotate(-10.45)"/>
    <path class="f5d2beae-4be0-4054-9813-e376b36880ad" d="M7739.69,424.43l-136.15,29.44L7683,821.28q9.47,43.78-28.84,52.07L7618.57,881l17.61,81.42q16.24,2.21,43,0t44.53-6q65.68-14.2,89.16-49.72t9.27-101.2Z" transform="translate(6774.15 425.67)"/>
    <rect class="f5d2beae-4be0-4054-9813-e376b36880ad" x="7582.8" y="303.3" width="139.3" height="94.5" transform="translate(6872.95 2051.06) rotate(-12.2)"/>
    <path class="f5d2beae-4be0-4054-9813-e376b36880ad" d="M8294.06,583.79l-24.5,5.89q-10.9,2.62-18.13-3.56t-10-17.75L8207.7,428.16q-14.88-61.93-73.24-77.07t-140.71,4.65q-90.53,21.75-132,63.39t-29.2,92.69a52.47,52.47,0,0,0,3,9.37l133.4-32.06-0.65-2.72q-3.93-16.34,9.59-27.5t34.61-16.24q23.13-5.56,40.39,1.81T8075.2,473l4.25,17.7q-85.76,20.61-136.39,43.57t-72.26,57.32q-21.63,34.35-9,86.76Q7886,779,8012.58,748.62q42.88-10.3,71.92-30.24a225.67,225.67,0,0,0,50-46.57q14.59,18.82,43,24.59t67.86-3.71A194.83,194.83,0,0,0,8280.69,681q14.91-6.82,22.69-11.93t9.49-7Zm-203.44,41.69Q8074,644.59,8047.43,651q-46.29,11.12-54.46-22.91-5.07-21.09,19.47-40.31t82.39-33.12l7.36,30.63Q8107.26,606.36,8090.62,625.48Z" transform="translate(6774.15 425.67)"/>
  </g>
</svg>
