<?xml version="1.0" encoding="UTF-8"?>
<svg width="414px" height="248px" viewBox="0 0 414 248" version="1.1" xmlns="http://www.w3.org/2000/svg" xmlns:xlink="http://www.w3.org/1999/xlink">
    <!-- Generator: Sketch 51.3 (57544) - http://www.bohemiancoding.com/sketch -->
    <title>4_graphique</title>
    <desc>Created with Sketch.</desc>
    <defs></defs>
    <g id="UI" stroke="none" stroke-width="1" fill="none" fill-rule="evenodd">
        <g id="4A.infos" transform="translate(-793.000000, -3167.000000)" fill-rule="nonzero">
            <g id="chiffres-clés" transform="translate(0.000000, 3033.000000)">
                <g id="4_graphique" transform="translate(800.000000, 141.000000)">
                    <path id="Path-2" d="M-5.55443729,237.807587 C-3.20166366,240.875218 1.1924425,241.454724 4.26007351,239.101951 C7.32770453,236.749177 7.90721093,232.355071 5.55443729,229.28744 C3.20166366,226.219809 -1.1924425,225.640302 -4.26007351,227.993076 C-7.32770453,230.34585 -7.90721093,234.739956 -5.55443729,237.807587 Z M-3.96745521,236.590423 C-5.64800781,234.399258 -5.23407466,231.260611 -3.04290965,229.580058 C-0.851744645,227.899505 2.28690261,228.313439 3.96745521,230.504604 C5.64800781,232.695769 5.23407466,235.834416 3.04290965,237.514968 C0.851744645,239.195521 -2.28690261,238.781588 -3.96745521,236.590423 Z M406.780033,22.578434 C405.818494,18.8339252 402.003489,16.5778823 398.25898,17.5394212 C394.514471,18.5009601 392.258428,22.3159656 393.219967,26.0604745 C394.181506,29.8049834 397.996511,32.0610263 401.74102,31.0994874 C405.485529,30.1379484 407.741572,26.3229429 406.780033,22.578434 Z M404.842881,23.0758684 C405.529694,25.7505176 403.918235,28.4755215 401.243586,29.162335 C398.568937,29.8491486 395.843933,28.2376893 395.157119,25.5630401 C394.470306,22.8883909 396.081765,20.163387 398.756414,19.4765735 C401.431063,18.78976 404.156067,20.4012192 404.842881,23.0758684 Z M5.32879775,230.720752 L100.608582,157.644243 L100.099504,157.845789 L200.099504,147.845789 L200.445754,147.811164 L200.695712,147.569072 L300.695712,50.7164137 L300.248717,50.9666695 L394.444924,26.7783656 L393.947489,24.8412133 L299.751283,49.0295172 L299.494629,49.0954225 L299.304288,49.2797729 L199.304288,146.132432 L199.900496,145.855715 L99.9004963,155.855715 L99.6172736,155.884037 L99.3914181,156.057261 L4.11163389,229.13377 L5.32879775,230.720752 Z" fill="#FF7471"></path>
                    <path id="Path-4" d="M-6.63782133,97.7224599 C-5.41039063,101.388427 -1.44350761,103.365252 2.22245989,102.137821 C5.88842738,100.910391 7.86525204,96.9435076 6.63782133,93.2775401 C5.41039063,89.6115726 1.44350761,87.634748 -2.22245989,88.8621787 C-5.88842738,90.0896094 -7.86525204,94.0564924 -6.63782133,97.7224599 Z M-4.74130095,97.0874713 C-5.61803717,94.4689231 -4.20601956,91.6354353 -1.58747135,90.758699 C1.03107686,89.8819628 3.86456474,91.2939804 4.74130095,93.9125287 C5.61803717,96.5310769 4.20601956,99.3645647 1.58747135,100.241301 C-1.03107686,101.118037 -3.86456474,99.7060196 -4.74130095,97.0874713 Z M406.932163,-0.0586611908 C406.395249,-3.88718923 402.856359,-6.55556946 399.027831,-6.01865524 C395.199303,-5.48174103 392.530923,-1.94285087 393.067837,1.88567717 C393.604751,5.71420521 397.143641,8.38258544 400.972169,7.84567122 C404.800697,7.30875701 407.469077,3.76986685 406.932163,-0.0586611908 Z M404.951545,0.219101432 C405.335055,2.95376432 403.429069,5.481543 400.694407,5.86505316 C397.959744,6.24856331 395.431965,4.34257743 395.048455,1.60791455 C394.664945,-1.12674833 396.570931,-3.65452702 399.305593,-4.03803718 C402.040256,-4.42154733 404.568035,-2.51556145 404.951545,0.219101432 Z M5.97207595,94.5550063 L100.317494,62.966493 L99.9523063,63.0170948 L199.952306,67.7918976 L200.221286,67.8047409 L200.460343,67.680777 L300.460343,15.825287 L300.138881,15.9278547 L394.247651,2.73000537 L393.969888,0.749387304 L299.861119,13.9472366 L299.69161,13.9710086 L299.539657,14.0498043 L199.539657,65.9052943 L200.047694,65.7941736 L100.047694,61.0193708 L99.8603545,61.0104257 L99.6825057,61.0699726 L5.33708741,92.6584859 L5.97207595,94.5550063 Z" fill="#FFFFFF"></path>
                </g>
            </g>
        </g>
    </g>
</svg>