<?xml version="1.0" encoding="UTF-8"?>
<svg width="50px" height="45px" viewBox="0 0 50 45" version="1.1" xmlns="http://www.w3.org/2000/svg" xmlns:xlink="http://www.w3.org/1999/xlink">
    <!-- Generator: sketchtool 52.6 (67491) - http://www.bohemiancoding.com/sketch -->
    <title>B37C7CA6-89A6-469D-A8AB-925786FA80D0@1x</title>
    <desc>Created with sketchtool.</desc>
    <g id="UI" stroke="none" stroke-width="1" fill="none" fill-rule="evenodd">
        <g id="00a_home" transform="translate(-750.000000, -500.000000)" fill-rule="nonzero" stroke="#FFFFFF">
            <g id="son_zone" transform="translate(700.000000, 450.000000)">
                <g id="media/icon_casque_clair" transform="translate(50.000000, 50.000000)">
                    <g>
                        <path d="M3.5,25.5 L3.5,44.5 L5,44.5 C7.48528137,44.5 9.5,42.4852814 9.5,40 L9.5,30 C9.5,27.5147186 7.48528137,25.5 5,25.5 L3.5,25.5 Z" id="Rectangle"></path>
                        <path d="M46.5,44.5 L46.5,25.5 L45,25.5 C42.5147186,25.5 40.5,27.5147186 40.5,30 L40.5,40 C40.5,42.4852814 42.5147186,44.5 45,44.5 L46.5,44.5 Z" id="Rectangle"></path>
                        <path d="M49.5,39.5 C49.5,32.174503 49.5,32.0216095 49.5,25 C49.5,11.468828 38.5503461,0.5 25.0437014,0.5 C11.5370566,0.5 0.587402721,11.468828 0.587168144,25.0153141 C0.474006933,28.7082487 0.471001582,33.5369363 0.578286937,39.5 L49.5,39.5 Z" id="Oval"></path>
                    </g>
                </g>
            </g>
        </g>
    </g>
</svg>