<?xml version="1.0" encoding="UTF-8"?>
<svg width="60px" height="50px" viewBox="0 0 60 50" version="1.1" xmlns="http://www.w3.org/2000/svg" xmlns:xlink="http://www.w3.org/1999/xlink">
    <!-- Generator: Sketch 51.3 (57544) - http://www.bohemiancoding.com/sketch -->
    <title>logo_a</title>
    <desc>Created with Sketch.</desc>
    <defs></defs>
    <g id="UI" stroke="none" stroke-width="1" fill="none" fill-rule="evenodd">
        <g id="00a_home" transform="translate(-760.000000, -200.000000)" fill="#FFFFFF">
            <g id="logo_zone" transform="translate(550.000000, 150.000000)">
                <path d="M246.170314,95.9504945 C244.083638,97.5899627 241.770067,98.9287673 239.256183,100 L216.485973,100 C212.172118,97.7714956 210,93.8449029 210,88.1984759 C210,83.3453095 211.312954,79.6409054 213.939811,77.0890456 C216.565719,74.5352949 220.347938,72.7861506 225.284568,71.8406671 C230.221199,70.8951837 236.676793,70.422442 244.65135,70.422442 L244.65135,67.9641851 C244.65135,66.0117618 243.970665,64.5292438 242.610244,63.520413 C241.248873,62.5134731 239.492571,62.0076395 237.34134,62.0076395 C235.379029,62.0076395 233.686334,62.3555774 232.262306,63.0476713 C230.838278,63.7416561 230.126264,64.8440898 230.126264,66.3568633 L230.126264,66.7350566 L211.518963,66.7350566 C211.455357,66.4202107 211.424028,65.9796154 211.424028,65.4113798 C211.424028,60.6839627 213.686334,56.9341754 218.211895,54.1610726 C222.736507,51.3870242 229.20824,50 237.626145,50 C245.283619,50 251.518014,51.2764026 256.328381,53.8292079 C261.136849,56.3820131 263.543457,60.5279579 263.543457,66.2623149 L263.543457,85.7392735 C263.543457,86.8123972 263.795984,87.6935877 264.303888,88.3866271 C264.807994,89.0806119 265.568425,89.4266589 266.580434,89.4266589 L270,89.4266589 L270,100 L250.033227,100 C248.213319,98.9552408 246.921251,97.6079269 246.170314,95.9504945 Z M227.892106,85.7392735 C227.892106,88.8924607 230.043338,90.4666906 234.3477,90.4666906 C236.816016,90.4666906 238.983386,89.8048522 240.850762,88.4811754 C242.717188,87.1574986 243.65135,85.5199213 243.65135,83.5646616 L243.65135,79.3099862 C238.271372,79.3099862 234.300233,79.8933495 231.736982,81.0591305 C229.173731,82.2258571 227.892106,83.7868502 227.892106,85.7392735 Z" id="logo_a"></path>
            </g>
        </g>
    </g>
</svg>