<?xml version="1.0" encoding="UTF-8"?>
<svg width="60px" height="50px" viewBox="0 0 60 50" version="1.1" xmlns="http://www.w3.org/2000/svg" xmlns:xlink="http://www.w3.org/1999/xlink">
    <!-- Generator: Sketch 51.3 (57544) - http://www.bohemiancoding.com/sketch -->
    <title>logo_e</title>
    <desc>Created with Sketch.</desc>
    <defs></defs>
    <g id="UI" stroke="none" stroke-width="1" fill="none" fill-rule="evenodd">
        <g id="00a_home" transform="translate(-902.000000, -200.000000)" fill="#FFFFFF">
            <g id="logo_zone" transform="translate(550.000000, 150.000000)">
                <path d="M409.064089,88.8594729 C405.938547,93.3752013 400.358124,97.0862381 392.335416,100 L364.98281,100 C360.267847,97.2753592 356.662571,92.6326231 354.166015,86.0717917 C351.160649,78.1741342 351.282763,71.3574332 354.532357,65.6207617 C357.781951,59.8859443 363.626955,55.5491393 372.066402,52.6103467 C380.869283,49.5454734 388.345384,49.1802102 394.492767,51.5108489 C400.640149,53.8442688 405.260135,59.0756905 408.353694,67.205114 L409.480828,70.1670832 L373.416442,82.7232369 C374.67635,86.0337821 376.400486,88.2624438 378.589818,89.4064406 C380.779151,90.5532187 383.542227,90.5439481 386.881952,89.3814099 C389.917362,88.32363 391.916739,86.9367424 392.880084,85.2216741 C393.84246,83.5047517 393.937438,81.6320826 393.164048,79.5971773 L410.740736,73.4785555 C412.862227,79.0529908 412.303022,84.1815084 409.064089,88.8594729 Z M376.004272,63.4208391 C370.296889,65.4084641 368.093018,69.1018867 369.391693,74.5029611 L387.059482,68.350965 C386.154286,65.9711919 384.721868,64.3312158 382.766103,63.433818 C380.808399,62.5373471 378.555102,62.5327118 376.004272,63.4208391 Z" id="logo_e"></path>
            </g>
        </g>
    </g>
</svg>