<?xml version="1.0" encoding="UTF-8"?>
<svg width="80px" height="50px" viewBox="0 0 80 50" version="1.1" xmlns="http://www.w3.org/2000/svg" xmlns:xlink="http://www.w3.org/1999/xlink">
    <!-- Generator: Sketch 51.3 (57544) - http://www.bohemiancoding.com/sketch -->
    <title>logo_m</title>
    <desc>Created with Sketch.</desc>
    <defs></defs>
    <g id="UI" stroke="none" stroke-width="1" fill="none" fill-rule="evenodd">
        <g id="00a_home" transform="translate(-588.000000, -200.000000)" fill="#FFFFFF">
            <g id="logo_zone" transform="translate(550.000000, 150.000000)">
                <path d="M56.0703746,71.3425385 C56.0703746,69.1776627 56.7359818,67.3524117 58.0681044,65.8677134 C59.399319,64.3830151 61.1246311,63.6406659 63.2440409,63.6406659 C65.0601589,63.6406659 66.4676504,64.2763024 67.4665153,65.5429356 C68.4653802,66.8114248 68.9648127,68.4984132 68.9648127,70.6001893 L68.9648127,100 L87.0351873,100 L87.0351873,71.3425385 C87.0351873,69.1776627 87.7007946,67.3524117 89.0329171,65.8677134 C90.3641317,64.3830151 92.0894438,63.6406659 94.2088536,63.6406659 C96.0249716,63.6406659 97.4324631,64.2763024 98.431328,65.5429356 C99.430193,66.8114248 99.9296254,68.4984132 99.9296254,70.6001893 L99.9296254,100 L118,100 L118,68.3731418 C118,62.4965202 116.637911,57.9654065 113.913734,54.7788727 C111.189557,51.5932669 107.103292,50 101.654938,50 C98.445857,50 95.3738933,50.7581241 92.4381385,52.2734443 C89.5014756,53.7896925 87.0951192,55.8459997 85.2190692,58.4442217 C82.7364359,52.8153592 77.8937571,50 70.6901249,50 C67.3602724,50 64.1975028,50.7581241 61.2009081,52.2734443 C58.2043133,53.7896925 55.7979569,55.8459997 53.9818388,58.4442217 L52.8013621,51.1135237 L38,51.1135237 L38,100 L56.0703746,100 L56.0703746,71.3425385 Z" id="logo_m"></path>
            </g>
        </g>
    </g>
</svg>