<?xml version="1.0" encoding="UTF-8"?>
<svg width="50px" height="50px" viewBox="0 0 50 50" version="1.1" xmlns="http://www.w3.org/2000/svg" xmlns:xlink="http://www.w3.org/1999/xlink">
    <!-- Generator: Sketch 51.3 (57544) - http://www.bohemiancoding.com/sketch -->
    <title>logo_s</title>
    <desc>Created with Sketch.</desc>
    <defs></defs>
    <g id="UI" stroke="none" stroke-width="1" fill="none" fill-rule="evenodd">
        <g id="00a_home" transform="translate(-848.000000, -200.000000)" fill="#FFFFFF">
            <g id="logo_zone" transform="translate(550.000000, 150.000000)">
                <path d="M341.073394,98.1260164 C345.689908,95.4162097 348,90.8778034 348,84.5107976 C348,80.6030407 346.929358,77.561363 344.788991,75.3857645 C342.646789,73.2111115 340.13945,71.6992549 337.266055,70.8473583 C334.389908,69.9973526 330.811927,69.2570251 326.531193,68.6263757 C323.045872,68.0581294 320.536697,67.5239212 319.008257,67.0190235 C317.478899,66.5141258 316.714679,65.6641201 316.714679,64.4652245 C316.714679,62.323664 318.917431,61.2514655 323.320183,61.2514655 C324.97156,61.2514655 326.347706,61.567263 327.448624,62.1969668 C329.03945,62.9533679 329.834862,64.2458682 329.834862,66.0735222 L346.807339,66.0735222 C346.807339,60.5896146 344.559633,56.5400325 340.063303,53.9238304 C335.568807,51.3085738 330.078899,50 323.595413,50 C316.377982,50 310.522018,51.2925003 306.027523,53.8756098 C301.531193,56.4615559 299.283486,60.8108619 299.283486,66.9244734 C299.283486,70.7064786 300.322936,73.6536061 302.40367,75.7649106 C304.481651,77.8771605 306.913761,79.373889 309.697248,80.2560418 C312.478899,81.13914 316.041284,81.9569986 320.384404,82.7133996 C323.993578,83.3449945 326.591743,83.9434968 328.182569,84.5107976 C329.773394,85.0771529 330.568807,85.9923982 330.568807,87.2527514 C330.568807,89.7110548 328.029358,90.939261 322.954128,90.939261 C321.057798,90.939261 319.26789,90.5137854 317.586239,89.6637797 C315.90367,88.8118831 315.03211,87.3151545 314.972477,85.1726485 L314.972477,84.7935025 L298,84.7935025 C298,88.7655535 299.192661,92.042661 301.577064,94.6276616 C303.753211,96.9847963 306.518349,98.7708483 309.86422,100 L337.06055,100 C338.49633,99.4695738 339.83945,98.8502704 341.073394,98.1260164" id="logo_s"></path>
            </g>
        </g>
    </g>
</svg>