<svg xmlns="http://www.w3.org/2000/svg" viewBox="0 0 427.43 363.71"><defs><style>.cls-1{fill:#1e8c6f;}</style></defs><title>Fichier 2</title><g id="Calque_2" data-name="Calque 2"><g id="Calque_1-2" data-name="Calque 1"><path class="cls-1" d="M6.32,337.23,6.13,327,5.91,327,0,334.52l2.38,7.76,3.94-5Zm1.06,2.86q-4.27,5.49-3.95,10.75t5.69,9.45q5.48,4.27,10.67,3.2t9.71-6.88q4.32-5.52,4.43-10.06a8.8,8.8,0,0,0-3.66-7.49l-5.94,7.61a3.57,3.57,0,0,1,1.48,2.65,5.43,5.43,0,0,1-1.43,3.54,5.14,5.14,0,0,1-3.62,2.28,6.37,6.37,0,0,1-4.18-1.64l12.19-15.61-1.34-1q-5.52-4.32-10.55-3.39t-9.5,6.63Zm5.25,3.6a4.38,4.38,0,0,1,3-1.85,4.48,4.48,0,0,1,3.29,1.08l-6,7.64q-3.16-3.17-.28-6.87Z"/><path class="cls-1" d="M34.26,310a9.46,9.46,0,0,0-2.87,9L28.14,317l-5.73,5.73L48,348.37l7-7-8.66-8.67a9.63,9.63,0,0,0,7.36-3.11q3.78-3.78,3.38-8.29T51.94,312q-4.84-4.84-9.37-5.27T34.26,310Zm3,7.39q3-3,6.65.57l1.87,1.87q3.64,3.64.6,6.68a3.75,3.75,0,0,1-3.45,1.22,6.93,6.93,0,0,1-3.66-2.1l-1.16-1.17A6.83,6.83,0,0,1,36,320.86a3.78,3.78,0,0,1,1.24-3.43Z"/><path class="cls-1" d="M53,289l-4.45-5.08-7.49,6.55,4.45,5.08L53,289Zm19.43,22.2L55.08,291.33l-7.49,6.55L65,317.75l7.49-6.55Z"/><path class="cls-1" d="M70.35,278.18a19.62,19.62,0,0,0-6.22,7.56q-1.59,3.9,1.42,7.69a6.25,6.25,0,0,0,4.24,2.6,9.59,9.59,0,0,0,4.59-.61,47,47,0,0,0,5.37-2.61,29.79,29.79,0,0,1,3.92-1.9,1.58,1.58,0,0,1,1.92.33c.8,1,.13,2.39-2,4.11a6.6,6.6,0,0,1-2.71,1.29,2.51,2.51,0,0,1-2.59-1l-.13-.16-7.24,5.75a7.22,7.22,0,0,0,4.76,2.86,11.72,11.72,0,0,0,5.84-.77A21.83,21.83,0,0,0,87.25,300a19.8,19.8,0,0,0,6.4-7.82c1.07-2.69.57-5.35-1.53-8a6.47,6.47,0,0,0-4.37-2.69,9.43,9.43,0,0,0-4.7.68,42.2,42.2,0,0,0-5.31,2.72A32.74,32.74,0,0,1,74,286.78c-.82.31-1.43.22-1.82-.28q-1.07-1.33,1.76-3.57a4.52,4.52,0,0,1,2.07-1,2.09,2.09,0,0,1,2.29.8L85.55,277a6.89,6.89,0,0,0-6.88-2.74,18,18,0,0,0-8.32,4Z"/><path class="cls-1" d="M96.6,258.33c-3.75,2.7-6,5.78-6.79,9.21s.17,7,2.82,10.66,5.72,5.7,9.22,6.05,7.13-.83,10.89-3.53,6-5.8,6.8-9.25-.15-7-2.78-10.66-5.71-5.66-9.23-6-7.17.82-10.93,3.53Zm4,5.47q4-2.9,7.32,1.69l1.67,2.31q3.27,4.54-.74,7.44t-7.25-1.68l-1.67-2.31q-3.3-4.59.67-7.45Z"/><path class="cls-1" d="M151.07,253.56l-20.21-30.1L122.6,229l6.86,10.21a9.65,9.65,0,0,0-7.84,1.6c-3,2-4.6,4.48-4.92,7.48s.8,6.39,3.33,10.15,5.27,6.11,8.17,7,5.84.3,8.8-1.69a9.48,9.48,0,0,0,4.55-8.3l2.8,2.64,6.72-4.51Zm-22.78-8.37a3.72,3.72,0,0,1,3.61-.53,6.9,6.9,0,0,1,3.19,2.77l.92,1.37a6.77,6.77,0,0,1,1.34,4,3.77,3.77,0,0,1-1.87,3.13q-3.57,2.4-6.41-1.84l-1.48-2.2q-2.88-4.28.7-6.67Z"/><path class="cls-1" d="M153,220.12q-5.85,3.76-7.28,8.84t2.24,10.8q3.75,5.85,9,6.54T168.44,243q5.88-3.78,7.5-8a8.81,8.81,0,0,0-1-8.28l-8.12,5.21a3.59,3.59,0,0,1,.52,3,5.39,5.39,0,0,1-2.52,2.86,5.09,5.09,0,0,1-4.17,1,6.33,6.33,0,0,1-3.4-2.93l16.66-10.7-.92-1.43q-3.78-5.9-8.84-6.68T153,220.12Zm3.76,5.13a4.38,4.38,0,0,1,3.41-.76,4.44,4.44,0,0,1,2.74,2.1l-8.16,5.24q-1.94-4,2-6.58Z"/><path class="cls-1" d="M191.3,186.39q-6.86,4.31-7.21,9.92t4.25,12.94q4.59,7.33,9.8,9.47t12.07-2.16q6.81-4.27,7.16-9.89t-4.24-12.95q-4.6-7.32-9.8-9.47t-12,2.14Zm3.59,5.72a3.77,3.77,0,0,1,4.14-.26q1.93,1.11,4.38,5l2.63,4.19q2.44,3.9,2.61,6.15a3.76,3.76,0,0,1-2,3.64,3.89,3.89,0,0,1-4.2.27c-1.33-.74-2.8-2.41-4.43-5l-2.63-4.2q-2.42-3.85-2.55-6.13a3.9,3.9,0,0,1,2.08-3.66Z"/><path class="cls-1" d="M239.61,188.21l-14.3-22.61-2.83,1.79a37.15,37.15,0,0,1-4.19,6.94,25.74,25.74,0,0,1-5.39,5.51l3.1,4.9,6.88-4.35,8.32,13.14-6.89,4.35,4.11,6.51,21.94-13.87L246.24,184l-6.63,4.2Z"/><polygon class="cls-1" points="263.63 181.96 258.23 173.6 249.32 179.35 254.72 187.71 263.63 181.96 263.63 181.96"/><path class="cls-1" d="M291.5,127.13l2.72-9.87-.19-.1-7.82,5.57.08,8.12,5.21-3.72Zm.21,3.05q-5.67,4-6.84,9.18T287.63,150q4,5.67,9.32,6.1t11.27-3.83q5.7-4.06,7.11-8.39a8.8,8.8,0,0,0-1.39-8.22l-7.85,5.6a3.56,3.56,0,0,1,.66,3,5.34,5.34,0,0,1-2.38,3,5.08,5.08,0,0,1-4.12,1.16,6.3,6.3,0,0,1-3.53-2.76l16.12-11.5-1-1.38q-4.07-5.7-9.15-6.25t-11,3.67Zm4,4.93a4.36,4.36,0,0,1,3.36-.92,4.46,4.46,0,0,1,2.85,2l-7.9,5.63q-2.13-3.93,1.69-6.67Z"/><path class="cls-1" d="M320.34,108.61a9.45,9.45,0,0,0-3.92,8.61l-3-2.43-6.37,5,22.39,28.51,7.83-6.14-7.57-9.64a9.62,9.62,0,0,0,7.67-2.21q4.22-3.3,4.35-7.83t-4.07-9.87q-4.23-5.39-8.67-6.35t-8.65,2.35Zm2.1,7.69q3.38-2.65,6.53,1.36l1.64,2.08q3.18,4-.2,6.71a3.79,3.79,0,0,1-3.57.8,7,7,0,0,1-3.38-2.53l-1-1.3a6.84,6.84,0,0,1-1.64-3.86,3.77,3.77,0,0,1,1.64-3.26Z"/><path class="cls-1" d="M337.93,90.81l-4.42-5.1L326,92.22l4.42,5.1,7.52-6.51Zm19.3,22.31L340,93.16l-7.53,6.51,17.28,20,7.52-6.51Z"/><path class="cls-1" d="M352.08,80.73a19.47,19.47,0,0,0-5.43,8.14q-1.2,4,2.18,7.51a6.26,6.26,0,0,0,4.48,2.17,9.63,9.63,0,0,0,4.5-1.07,48.46,48.46,0,0,0,5.08-3.13,28.79,28.79,0,0,1,3.71-2.29,1.56,1.56,0,0,1,1.94.14q1.36,1.39-1.61,4.29A6.48,6.48,0,0,1,364.36,98a2.51,2.51,0,0,1-2.68-.7l-.14-.15-6.63,6.45a7.23,7.23,0,0,0,5,2.37,11.74,11.74,0,0,0,5.73-1.35,22,22,0,0,0,5.41-3.91,19.91,19.91,0,0,0,5.58-8.42c.8-2.79,0-5.38-2.32-7.8a6.46,6.46,0,0,0-4.62-2.23,9.37,9.37,0,0,0-4.61,1.13,43.5,43.5,0,0,0-5,3.24,30.9,30.9,0,0,1-3.53,2.25c-.79.39-1.4.36-1.84-.1q-1.19-1.21,1.39-3.72a4.48,4.48,0,0,1,2-1.21,2.09,2.09,0,0,1,2.36.56L367.08,78A6.88,6.88,0,0,0,360,76a17.92,17.92,0,0,0-7.88,4.77Z"/><path class="cls-1" d="M371.48,59.55c-3,3.56-4.38,7.11-4.27,10.62s1.92,6.72,5.41,9.62,7,4.07,10.45,3.53,6.69-2.59,9.65-6.15,4.38-7.12,4.26-10.66-1.9-6.75-5.37-9.62-6.94-4-10.44-3.5-6.73,2.59-9.69,6.16Zm5.19,4.31q3.16-3.81,7.51-.21l2.2,1.82q4.31,3.59,1.15,7.39t-7.44.2l-2.2-1.82q-4.35-3.61-1.22-7.38Z"/><path class="cls-1" d="M418.31,37.85,387.12,19.36l-5.07,8.56,10.58,6.27a9.68,9.68,0,0,0-6.4,4.81q-2.73,4.61-1.22,8.87c1,2.85,3.47,5.42,7.36,7.74s7.39,3.25,10.39,2.78,5.39-2.24,7.21-5.31a9.51,9.51,0,0,0,.55-9.45l3.66,1.19,4.13-7Zm-24.17,2.23a3.73,3.73,0,0,1,3-2,6.93,6.93,0,0,1,4.07,1.13l1.42.84a6.87,6.87,0,0,1,2.92,3,3.76,3.76,0,0,1-.35,3.63q-2.19,3.71-6.58,1.1l-2.28-1.35q-4.42-2.62-2.23-6.33Z"/><path class="cls-1" d="M399.71,10.65q-2.28,6.57-.26,11.45t8.43,7.1q6.57,2.28,11.13-.42t7-9.65q2.28-6.61.94-10.94A8.83,8.83,0,0,0,421,2.28l-3.17,9.12a3.52,3.52,0,0,1,2.26,2,5.36,5.36,0,0,1-.21,3.82,5.12,5.12,0,0,1-2.69,3.33,6.39,6.39,0,0,1-4.48-.21l6.49-18.7-1.6-.56q-6.61-2.29-11.08.2t-6.85,9.35Zm6.13,1.7a4.4,4.4,0,0,1,2.21-2.7,4.48,4.48,0,0,1,3.46,0l-3.18,9.16c-2.69-1.32-3.51-3.45-2.49-6.42Z"/></g></g></svg>