<svg xmlns="http://www.w3.org/2000/svg" viewBox="0 0 560.21 292.14"><defs><style>.cls-1{fill:#2a4dc5;}</style></defs><title>Fichier 1</title><g id="Calque_2" data-name="Calque 2"><g id="Calque_1-2" data-name="Calque 1"><path class="cls-1" d="M12.62,26.68l6.18-8.16-.15-.17-9.32,2.3L6.41,28.22l6.21-1.54Zm-.93,2.91q-6.75,1.66-9.75,6T.57,46.54Q2.24,53.29,7,55.65t11.89.6q6.8-1.68,9.69-5.17a8.8,8.8,0,0,0,1.75-8.16L21,45.23a3.58,3.58,0,0,1-.47,3,5.39,5.39,0,0,1-3.32,1.9,5.05,5.05,0,0,1-4.25-.45,6.28,6.28,0,0,1-2.27-3.87l19.22-4.73-.4-1.65q-1.68-6.8-6.2-9.19t-11.57-.65Zm1.91,6.07a4.37,4.37,0,0,1,3.46.38A4.4,4.4,0,0,1,19,38.92L9.56,41.24c-.35-3,1-4.83,4-5.58Z"/><path class="cls-1" d="M47.05,21.82a9.5,9.5,0,0,0-7.37,5.93l-1.57-3.5-7.94,1.6,7.2,35.53,9.75-2-2.43-12a9.64,9.64,0,0,0,7.85,1.47q5.24-1.07,7.39-5t.8-10.64q-1.36-6.72-4.9-9.57t-8.78-1.79Zm-1.58,7.82c2.81-.57,4.56.81,5.23,4.14l.53,2.6q1,5-3.19,5.9a3.75,3.75,0,0,1-3.55-.89,6.93,6.93,0,0,1-1.89-3.77L42.28,36a6.75,6.75,0,0,1,.27-4.19,3.79,3.79,0,0,1,2.92-2.17Z"/><path class="cls-1" d="M73.38,14.43,72.27,7.77,62.45,9.41l1.11,6.66,9.82-1.64Zm4.85,29.1-4.34-26-9.82,1.63,4.35,26,9.81-1.63Z"/><path class="cls-1" d="M93.48,14.2a19.49,19.49,0,0,0-9.23,3.26c-2.26,1.68-3.17,4.12-2.76,7.32a6.28,6.28,0,0,0,2.29,4.42A9.64,9.64,0,0,0,88,31a46,46,0,0,0,5.94.54,30.88,30.88,0,0,1,4.34.39c.9.19,1.39.61,1.48,1.27.16,1.29-1.12,2.12-3.87,2.47a6.45,6.45,0,0,1-3-.29,2.5,2.5,0,0,1-1.71-2.17l0-.2L82,34.24a7.28,7.28,0,0,0,2.6,4.91A11.67,11.67,0,0,0,90,41.5a22.16,22.16,0,0,0,6.67.11,19.85,19.85,0,0,0,9.51-3.4c2.32-1.75,3.25-4.29,2.82-7.63A6.47,6.47,0,0,0,106.66,26a9.4,9.4,0,0,0-4.37-1.85,45.21,45.21,0,0,0-6-.41,29.56,29.56,0,0,1-4.18-.32q-1.29-.23-1.41-1.17c-.15-1.13,1-1.84,3.35-2.15a4.55,4.55,0,0,1,2.29.2A2.12,2.12,0,0,1,98,22.19L107.12,21a6.88,6.88,0,0,0-4.47-5.9,17.93,17.93,0,0,0-9.17-.9Z"/><path class="cls-1" d="M126.41,10.88q-6.93.51-10.6,4.3t-3.17,10.57q.51,6.78,4.71,10t11.13,2.68q6.93-.52,10.63-4.33t3.2-10.55q-.51-6.72-4.74-9.95t-11.16-2.69Zm.51,6.73c3.29-.25,5.08,1.51,5.36,5.26l.21,2.84c.28,3.73-1.22,5.71-4.52,6s-5-1.5-5.3-5.22l-.21-2.84q-.43-5.64,4.46-6Z"/><path class="cls-1" d="M175.38,36.25,175,0l-9.95.1.13,12.3a9.7,9.7,0,0,0-7.44-3c-3.56,0-6.3,1.22-8.21,3.56s-2.84,5.77-2.79,10.3,1.05,8,3,10.32S154.47,37.06,158,37a9.49,9.49,0,0,0,8.36-4.44l.88,3.74,8.1-.08Zm-14.45-19.5a3.76,3.76,0,0,1,3.32,1.54,7,7,0,0,1,1.14,4.06l0,1.65a6.91,6.91,0,0,1-1.06,4.06,3.8,3.8,0,0,1-3.29,1.59q-4.29,0-4.35-5.06l0-2.65c0-3.43,1.38-5.16,4.25-5.19Z"/><path class="cls-1" d="M196.75,10.33q-6.93-.44-11.09,2.81t-4.6,10q-.44,6.93,3.39,10.61t11.16,4.14q7,.44,10.8-2a8.82,8.82,0,0,0,4.12-7.25L200.9,28a3.6,3.6,0,0,1-1.35,2.72,5.44,5.44,0,0,1-3.74.82,5.11,5.11,0,0,1-3.92-1.7,6.35,6.35,0,0,1-1-4.38l19.76,1.25.1-1.69q.45-7-3.16-10.62t-10.84-4.1Zm0,6.37a4.4,4.4,0,0,1,3.2,1.4,4.45,4.45,0,0,1,1,3.32l-9.68-.61q.84-4.41,5.52-4.11Z"/><path class="cls-1" d="M251.29,9.25q-7.95-1.54-12,2.32t-5.74,12.36q-1.65,8.49.69,13.6t10.3,6.66q7.91,1.55,12-2.33t5.73-12.35q1.65-8.49-.69-13.61T251.29,9.25ZM250,15.87a3.79,3.79,0,0,1,3.21,2.64c.43,1.43.36,3.64-.23,6.65L252,30c-.59,3-1.35,5.11-2.29,6.28a3.77,3.77,0,0,1-4,1.27,3.89,3.89,0,0,1-3.25-2.67q-.69-2.17.18-6.69l.95-4.86c.58-3,1.35-5.05,2.33-6.22a3.87,3.87,0,0,1,4-1.26Z"/><path class="cls-1" d="M287.53,18.21q-6.9-2.07-11.41-.15a10.47,10.47,0,0,0-6.05,7.09,7.54,7.54,0,0,0-.27,1.07l8.53,2.54.28-1a4.57,4.57,0,0,1,2.22-2.89,4.82,4.82,0,0,1,3.78-.23,4.45,4.45,0,0,1,2.79,1.93,3.5,3.5,0,0,1,.28,2.8,4.37,4.37,0,0,1-2.23,2.41,56.4,56.4,0,0,1-6.09,2.72c-3.56,1.44-6.3,2.61-8.24,3.49a18.07,18.07,0,0,0-4.62,3A9,9,0,0,0,264,45.19l-.69,2.3,27.31,8.16,2.42-8.1-14.43-4.3c1.06-.39,2.4-.82,4-1.3q4.44-1.39,7.06-2.49a16.55,16.55,0,0,0,4.69-2.93,9.84,9.84,0,0,0,2.89-4.62,9.33,9.33,0,0,0,0-5.68,10.38,10.38,0,0,0-3.37-4.79,17.75,17.75,0,0,0-6.37-3.23Z"/><polygon class="cls-1" points="305.6 61.27 309.2 51.99 299.31 48.16 295.72 57.44 305.6 61.27 305.6 61.27"/><path class="cls-1" d="M369.76,62l10.18-1.08,0-.23-8-5.22-7.52,3L369.76,62ZM367,63.33q-5.83-3.8-11.05-3T347,66.82c-2.52,3.88-3.28,7.52-2.25,10.9s3.58,6.41,7.69,9.08c3.92,2.54,7.38,3.72,10.41,3.54A8.8,8.8,0,0,0,370,86l-8.09-5.25a3.59,3.59,0,0,1-2.51,1.71,5.46,5.46,0,0,1-3.66-1.12A5.07,5.07,0,0,1,353.18,78a6.29,6.29,0,0,1,1.27-4.3l16.61,10.78L372,83q3.81-5.87,2.46-10.8T367,63.33Zm-3.12,5.54A4.37,4.37,0,0,1,366,71.66a4.48,4.48,0,0,1-.78,3.37l-8.14-5.29c1.92-2.28,4.2-2.58,6.83-.87Z"/><path class="cls-1" d="M399.28,87.48a9.46,9.46,0,0,0-9.23-2.07L391.81,82l-6.2-5.21L362.3,104.54l7.62,6.4,7.87-9.38a9.69,9.69,0,0,0,3.74,7.06q4.1,3.43,8.55,2.64t8.83-6q4.41-5.25,4.44-9.79t-4.07-8Zm-7.1,3.64q3.3,2.76,0,6.67l-1.7,2q-3.32,3.95-6.6,1.17a3.74,3.74,0,0,1-1.52-3.32,7,7,0,0,1,1.78-3.83l1.06-1.27a6.86,6.86,0,0,1,3.45-2.39,3.76,3.76,0,0,1,3.52.94Z"/><path class="cls-1" d="M421.88,104.35l4.67-4.87-7.18-6.88-4.67,4.87,7.18,6.88Zm-20.42,21.29,18.27-19-7.18-6.89-18.27,19.06,7.18,6.88Z"/><path class="cls-1" d="M434.17,120.66a19.66,19.66,0,0,0-8.08-5.54q-4-1.25-7.54,2.09a6.24,6.24,0,0,0-2.22,4.45,9.64,9.64,0,0,0,1,4.51,47.61,47.61,0,0,0,3.07,5.13,29.57,29.57,0,0,1,2.23,3.73c.38.84.33,1.49-.16,1.94q-1.41,1.35-4.27-1.67a6.52,6.52,0,0,1-1.52-2.58,2.51,2.51,0,0,1,.74-2.67l.15-.14-6.36-6.71a7.23,7.23,0,0,0-2.44,5,11.72,11.72,0,0,0,1.28,5.75,22,22,0,0,0,3.84,5.46,19.91,19.91,0,0,0,8.35,5.69q4.15,1.26,7.82-2.22a6.46,6.46,0,0,0,2.3-4.59,9.54,9.54,0,0,0-1.08-4.63,45,45,0,0,0-3.17-5.05,30.31,30.31,0,0,1-2.21-3.56,1.46,1.46,0,0,1,.12-1.84c.83-.77,2.06-.29,3.71,1.45a4.57,4.57,0,0,1,1.19,2,2.09,2.09,0,0,1-.59,2.36l6.36,6.71a6.85,6.85,0,0,0,2.13-7.09,18,18,0,0,0-4.66-7.94Z"/><path class="cls-1" d="M456.23,145.08q-4.53-5.27-9.77-6t-10.38,3.74q-5.15,4.44-5.22,9.72t4.47,10.54q4.55,5.26,9.81,6t10.37-3.7q5.12-4.41,5.19-9.72t-4.47-10.58Zm-5.11,4.41q3.24,3.75-1,7.44l-2.16,1.86q-4.25,3.66-7.48-.09t1-7.37l2.16-1.86q4.28-3.69,7.48,0Z"/><path class="cls-1" d="M465.73,198.93,494,176.17l-6.25-7.74-9.57,7.72a9.69,9.69,0,0,0-2.28-7.68q-3.36-4.16-7.88-4.24t-9.82,4.2q-5.32,4.29-6.23,8.75t2.45,8.62a9.5,9.5,0,0,0,8.66,3.81l-2.39,3,5.09,6.31Zm6.35-23.43a3.75,3.75,0,0,1,.84,3.56,6.87,6.87,0,0,1-2.48,3.41l-1.28,1a6.84,6.84,0,0,1-3.84,1.68A3.77,3.77,0,0,1,462,183.6q-2.7-3.34,1.27-6.55l2.06-1.66q4-3.24,6.71.11Z"/><path class="cls-1" d="M499.21,198q-4.26-5.5-9.44-6.48t-10.57,3.17q-5.49,4.26-5.72,9.56t4.26,11.11q4.27,5.53,8.65,6.77a8.82,8.82,0,0,0,8.17-1.7l-5.91-7.63a3.58,3.58,0,0,1-2.93.78,5.44,5.44,0,0,1-3.08-2.26,5.1,5.1,0,0,1-1.31-4.08,6.27,6.27,0,0,1,2.62-3.63l12.11,15.66,1.34-1q5.55-4.29,5.89-9.39T499.21,198Zm-4.78,4.2a4.11,4.11,0,0,1-.8,6.24l-5.93-7.67q3.85-2.29,6.73,1.43Z"/><path class="cls-1" d="M536.15,233.15q-4.89-6.47-10.51-6.32t-12.53,5.36q-6.9,5.22-8.57,10.59t3.2,11.83q4.86,6.42,10.48,6.28t12.52-5.36q6.91-5.22,8.58-10.58t-3.17-11.8Zm-5.39,4.07a3.79,3.79,0,0,1,.63,4.1q-.95,2-4.62,4.8l-3.95,3c-2.45,1.85-4.41,2.89-5.9,3.14a3.78,3.78,0,0,1-3.79-1.71,3.88,3.88,0,0,1-.64-4.16q.93-2.07,4.61-4.85l3.95-3c2.42-1.82,4.38-2.85,5.88-3.07a3.88,3.88,0,0,1,3.83,1.75Z"/><path class="cls-1" d="M556.59,260.07q-4.37-5.73-9.14-6.84a10.49,10.49,0,0,0-9.07,2.17,8.35,8.35,0,0,0-.84.71l5.39,7.07.8-.6a4.61,4.61,0,0,1,3.49-1,4.78,4.78,0,0,1,3.19,2,4.48,4.48,0,0,1,1.12,3.2,3.54,3.54,0,0,1-1.42,2.43,4.29,4.29,0,0,1-3.23.63,55.44,55.44,0,0,1-6.52-1.38c-3.72-.93-6.63-1.6-8.71-2a18,18,0,0,0-5.49-.31,9.1,9.1,0,0,0-4.5,1.89l-1.91,1.45L537,292.14l6.72-5.12-9.13-12c1.08.31,2.42.75,4,1.33q4.41,1.49,7.17,2.14a16.58,16.58,0,0,0,5.51.39,9.81,9.81,0,0,0,5.06-2,9.33,9.33,0,0,0,3.35-4.6,10.35,10.35,0,0,0,.09-5.85,17.62,17.62,0,0,0-3.24-6.36Z"/></g></g></svg>