<svg xmlns="http://www.w3.org/2000/svg" viewBox="0 0 835.35 463.67"><defs><style>.cls-1{fill:#fc8171;}</style></defs><title>Fichier 1</title><g id="Calque_2" data-name="Calque 2"><g id="Calque_1-2" data-name="Calque 1"><path class="cls-1" d="M12.62,26.68l6.18-8.16-.15-.17-9.32,2.3L6.41,28.22l6.21-1.54Zm-.93,2.91q-6.75,1.66-9.75,6T.57,46.54Q2.24,53.29,7,55.65t11.89.6q6.8-1.68,9.69-5.17a8.8,8.8,0,0,0,1.75-8.16L21,45.23a3.58,3.58,0,0,1-.47,3,5.39,5.39,0,0,1-3.32,1.9,5.05,5.05,0,0,1-4.25-.45,6.28,6.28,0,0,1-2.27-3.87l19.22-4.73-.4-1.65q-1.68-6.8-6.2-9.19t-11.57-.65Zm1.91,6.07a4.37,4.37,0,0,1,3.46.38A4.4,4.4,0,0,1,19,38.92L9.56,41.24c-.35-3,1-4.83,4-5.58Z"/><path class="cls-1" d="M47.05,21.82a9.5,9.5,0,0,0-7.37,5.93l-1.57-3.5-7.94,1.6,7.2,35.53,9.75-2-2.43-12a9.64,9.64,0,0,0,7.85,1.47q5.24-1.07,7.39-5t.8-10.64q-1.36-6.72-4.9-9.57t-8.78-1.79Zm-1.58,7.82c2.81-.57,4.56.81,5.23,4.14l.53,2.6q1,5-3.19,5.9a3.75,3.75,0,0,1-3.55-.89,6.93,6.93,0,0,1-1.89-3.77L42.28,36a6.75,6.75,0,0,1,.27-4.19,3.79,3.79,0,0,1,2.92-2.17Z"/><path class="cls-1" d="M73.38,14.43,72.27,7.77,62.45,9.41l1.11,6.66,9.82-1.64Zm4.85,29.1-4.34-26-9.82,1.63,4.35,26,9.81-1.63Z"/><path class="cls-1" d="M93.48,14.2a19.49,19.49,0,0,0-9.23,3.26c-2.26,1.68-3.17,4.12-2.76,7.32a6.28,6.28,0,0,0,2.29,4.42A9.64,9.64,0,0,0,88,31a46,46,0,0,0,5.94.54,30.88,30.88,0,0,1,4.34.39c.9.19,1.39.61,1.48,1.27.16,1.29-1.12,2.12-3.87,2.47a6.45,6.45,0,0,1-3-.29,2.5,2.5,0,0,1-1.71-2.17l0-.2L82,34.24a7.28,7.28,0,0,0,2.6,4.91A11.67,11.67,0,0,0,90,41.5a22.16,22.16,0,0,0,6.67.11,19.85,19.85,0,0,0,9.51-3.4c2.32-1.75,3.25-4.29,2.82-7.63A6.47,6.47,0,0,0,106.66,26a9.4,9.4,0,0,0-4.37-1.85,45.21,45.21,0,0,0-6-.41,29.56,29.56,0,0,1-4.18-.32q-1.29-.23-1.41-1.17c-.15-1.13,1-1.84,3.35-2.15a4.55,4.55,0,0,1,2.29.2A2.12,2.12,0,0,1,98,22.19L107.12,21a6.88,6.88,0,0,0-4.47-5.9,17.93,17.93,0,0,0-9.17-.9Z"/><path class="cls-1" d="M126.41,10.88q-6.93.51-10.6,4.3t-3.17,10.57q.51,6.78,4.71,10t11.13,2.68q6.93-.52,10.63-4.33t3.19-10.55q-.5-6.72-4.73-9.95t-11.16-2.69Zm.51,6.73c3.29-.25,5.08,1.51,5.36,5.26l.21,2.84c.28,3.73-1.22,5.71-4.52,6s-5-1.5-5.3-5.22l-.21-2.84q-.43-5.64,4.46-6Z"/><path class="cls-1" d="M175.38,36.25,175,0l-9.95.1.13,12.3a9.7,9.7,0,0,0-7.44-3c-3.56,0-6.3,1.22-8.21,3.56s-2.84,5.77-2.79,10.3,1.05,8,3,10.32S154.47,37.06,158,37a9.49,9.49,0,0,0,8.36-4.44l.88,3.74,8.1-.08Zm-14.45-19.5a3.76,3.76,0,0,1,3.32,1.54,7,7,0,0,1,1.14,4.06l0,1.65a6.91,6.91,0,0,1-1.06,4.06,3.8,3.8,0,0,1-3.29,1.59q-4.29,0-4.35-5.06l0-2.65c0-3.43,1.38-5.16,4.25-5.19Z"/><path class="cls-1" d="M196.75,10.33q-6.93-.44-11.09,2.81t-4.6,10q-.44,6.93,3.39,10.61t11.16,4.14q7,.44,10.8-2a8.82,8.82,0,0,0,4.12-7.25L200.9,28a3.6,3.6,0,0,1-1.35,2.72,5.44,5.44,0,0,1-3.74.82,5.11,5.11,0,0,1-3.92-1.7,6.35,6.35,0,0,1-1-4.38l19.76,1.25.1-1.69q.45-7-3.16-10.62t-10.84-4.1Zm0,6.37a4.4,4.4,0,0,1,3.2,1.4,4.45,4.45,0,0,1,1,3.32l-9.68-.61q.84-4.41,5.52-4.11Z"/><path class="cls-1" d="M251.29,9.25q-7.95-1.54-12,2.32t-5.74,12.36q-1.65,8.49.69,13.6t10.3,6.66q7.91,1.55,12-2.33t5.73-12.35q1.65-8.49-.69-13.61T251.29,9.25ZM250,15.87a3.79,3.79,0,0,1,3.21,2.64c.43,1.43.36,3.64-.23,6.65L252,30c-.59,3-1.35,5.11-2.29,6.28a3.77,3.77,0,0,1-4,1.27,3.89,3.89,0,0,1-3.25-2.67q-.69-2.17.18-6.69l.95-4.86c.58-3,1.35-5.05,2.33-6.22a3.87,3.87,0,0,1,4-1.26Z"/><path class="cls-1" d="M287.2,18.11a19.91,19.91,0,0,0-7.43-.92,10.9,10.9,0,0,0-5.52,1.9,7.75,7.75,0,0,0-2.92,4.09l-.35,1.2,8,2.39a3.5,3.5,0,0,1,1.92-2.25,4.78,4.78,0,0,1,3.52-.09,4.39,4.39,0,0,1,2.76,2,3.8,3.8,0,0,1,.33,3,3.29,3.29,0,0,1-4.38,2.45l-2.74-.82L278.63,37l3.5,1a3.28,3.28,0,0,1,2.33,4.45q-1.32,4.41-6.3,2.92c-3.33-1-4.59-2.8-3.81-5.42l-8.43-2.51-.31,1a8.57,8.57,0,0,0,.09,5.3,10.59,10.59,0,0,0,3.68,4.8,22.24,22.24,0,0,0,7.44,3.58q6.75,2,11,.4a9.22,9.22,0,0,0,5.72-5.78,9.11,9.11,0,0,0,0-5.61,8.3,8.3,0,0,0-3.35-4.26l.06-.19A7.54,7.54,0,0,0,294.59,35a8.21,8.21,0,0,0,2.68-4.08,7.8,7.8,0,0,0-.16-5,10.61,10.61,0,0,0-3.44-4.55,18.68,18.68,0,0,0-6.47-3.23Z"/><polygon class="cls-1" points="305.6 61.27 309.2 51.99 299.31 48.16 295.72 57.44 305.6 61.27 305.6 61.27"/><path class="cls-1" d="M369.76,62l10.18-1.08,0-.23-8-5.22-7.52,3L369.76,62ZM367,63.33q-5.83-3.8-11.05-3T347,66.82c-2.52,3.88-3.28,7.52-2.25,10.9s3.58,6.41,7.69,9.08c3.92,2.54,7.38,3.72,10.41,3.54A8.8,8.8,0,0,0,370,86l-8.09-5.25a3.59,3.59,0,0,1-2.51,1.71,5.46,5.46,0,0,1-3.66-1.12A5.07,5.07,0,0,1,353.18,78a6.29,6.29,0,0,1,1.27-4.3l16.61,10.78L372,83q3.81-5.87,2.46-10.8T367,63.33Zm-3.12,5.54A4.37,4.37,0,0,1,366,71.66a4.48,4.48,0,0,1-.78,3.37l-8.14-5.29c1.92-2.28,4.2-2.58,6.83-.87Z"/><path class="cls-1" d="M399.28,87.48a9.46,9.46,0,0,0-9.23-2.07L391.81,82l-6.2-5.21L362.3,104.54l7.62,6.4,7.87-9.38a9.69,9.69,0,0,0,3.74,7.06q4.1,3.43,8.55,2.64t8.83-6q4.41-5.25,4.44-9.79t-4.07-8Zm-7.1,3.64q3.3,2.76,0,6.67l-1.7,2q-3.32,3.95-6.6,1.17a3.74,3.74,0,0,1-1.52-3.32,7,7,0,0,1,1.78-3.83l1.06-1.27a6.86,6.86,0,0,1,3.45-2.39,3.76,3.76,0,0,1,3.52.94Z"/><path class="cls-1" d="M421.88,104.35l4.67-4.87-7.18-6.88-4.67,4.87,7.18,6.88Zm-20.42,21.29,18.27-19-7.18-6.89-18.27,19.06,7.18,6.88Z"/><path class="cls-1" d="M434.17,120.66a19.66,19.66,0,0,0-8.08-5.54q-4-1.25-7.54,2.09a6.24,6.24,0,0,0-2.22,4.45,9.64,9.64,0,0,0,1,4.51,47.61,47.61,0,0,0,3.07,5.13,29.57,29.57,0,0,1,2.23,3.73c.38.84.33,1.49-.16,1.94q-1.41,1.35-4.27-1.67a6.52,6.52,0,0,1-1.52-2.58,2.51,2.51,0,0,1,.74-2.67l.15-.14-6.37-6.71a7.26,7.26,0,0,0-2.43,5,11.72,11.72,0,0,0,1.28,5.75,22,22,0,0,0,3.84,5.46,19.91,19.91,0,0,0,8.35,5.69q4.15,1.26,7.82-2.22a6.46,6.46,0,0,0,2.3-4.59,9.54,9.54,0,0,0-1.08-4.63,45,45,0,0,0-3.17-5.05,30.31,30.31,0,0,1-2.21-3.56,1.46,1.46,0,0,1,.12-1.84c.83-.77,2.06-.29,3.71,1.45a4.57,4.57,0,0,1,1.19,2,2.09,2.09,0,0,1-.59,2.36l6.36,6.71a6.87,6.87,0,0,0,2.13-7.09,18,18,0,0,0-4.66-7.94Z"/><path class="cls-1" d="M456.23,145.08q-4.53-5.27-9.77-6t-10.38,3.74q-5.15,4.44-5.22,9.72t4.47,10.54q4.55,5.26,9.81,6t10.37-3.7q5.12-4.41,5.19-9.72t-4.47-10.58Zm-5.11,4.41q3.24,3.75-1,7.44l-2.16,1.86q-4.25,3.66-7.48-.09t1-7.37l2.16-1.86q4.28-3.69,7.48,0Z"/><path class="cls-1" d="M465.73,198.93,494,176.17l-6.25-7.74-9.57,7.72a9.69,9.69,0,0,0-2.28-7.68q-3.36-4.16-7.88-4.24t-9.82,4.2q-5.32,4.29-6.23,8.75t2.45,8.62a9.5,9.5,0,0,0,8.66,3.81l-2.39,3,5.09,6.31Zm6.35-23.43a3.75,3.75,0,0,1,.84,3.56,6.87,6.87,0,0,1-2.48,3.41l-1.28,1a6.84,6.84,0,0,1-3.84,1.68A3.77,3.77,0,0,1,462,183.6q-2.7-3.34,1.27-6.55l2.06-1.66q4-3.24,6.71.11Z"/><path class="cls-1" d="M499.21,198q-4.26-5.5-9.44-6.48t-10.57,3.17q-5.49,4.26-5.72,9.56t4.26,11.11q4.27,5.53,8.65,6.77a8.82,8.82,0,0,0,8.17-1.7l-5.91-7.63a3.58,3.58,0,0,1-2.93.78,5.44,5.44,0,0,1-3.08-2.26,5.1,5.1,0,0,1-1.31-4.08,6.27,6.27,0,0,1,2.62-3.63l12.11,15.66,1.34-1q5.55-4.29,5.89-9.39T499.21,198Zm-4.78,4.2a4.11,4.11,0,0,1-.8,6.24l-5.93-7.67q3.85-2.29,6.73,1.43Z"/><path class="cls-1" d="M536.15,233.15q-4.89-6.47-10.51-6.32t-12.53,5.36q-6.9,5.22-8.57,10.59t3.2,11.83q4.86,6.42,10.48,6.28t12.52-5.36q6.91-5.22,8.58-10.58t-3.17-11.8Zm-5.39,4.07a3.79,3.79,0,0,1,.63,4.1q-.95,2-4.62,4.8l-3.95,3c-2.45,1.85-4.41,2.89-5.9,3.14a3.78,3.78,0,0,1-3.79-1.71,3.88,3.88,0,0,1-.64-4.16q.93-2.07,4.61-4.85l3.95-3c2.42-1.82,4.38-2.85,5.88-3.07a3.88,3.88,0,0,1,3.83,1.75Z"/><path class="cls-1" d="M556.38,259.79a19.83,19.83,0,0,0-5.47-5.11,10.74,10.74,0,0,0-5.58-1.71,7.62,7.62,0,0,0-4.76,1.58l-1,.76,5.06,6.64a3.53,3.53,0,0,1,2.88-.68,4.76,4.76,0,0,1,2.9,2,4.37,4.37,0,0,1,1,3.26,3.76,3.76,0,0,1-1.51,2.63,3.53,3.53,0,0,1-2.72.85,3.58,3.58,0,0,1-2.27-1.45l-1.72-2.27L538.34,270l2.21,2.9a3.3,3.3,0,0,1-.74,5q-3.66,2.79-6.81-1.35t.1-6.62l-5.33-7-.83.64a8.42,8.42,0,0,0-3.05,4.33,10.46,10.46,0,0,0,.15,6.05,22.16,22.16,0,0,0,3.9,7.27q4.27,5.61,8.68,6.81a9.2,9.2,0,0,0,8-1.31A9,9,0,0,0,548,282.2a8.27,8.27,0,0,0-.19-5.41l.16-.12a7.64,7.64,0,0,0,4.51,1.09A8.2,8.2,0,0,0,557,276a7.77,7.77,0,0,0,2.81-4.12,10.6,10.6,0,0,0-.11-5.71,18.72,18.72,0,0,0-3.32-6.42Z"/><polygon class="cls-1" points="546.86 304.81 554.72 298.71 548.21 290.34 540.36 296.44 546.86 304.81 546.86 304.81"/><path class="cls-1" d="M603.91,327.8,614,329.66l.09-.21-6.24-7.3-8.07.78,4.15,4.87Zm-3,.47q-4.51-5.28-9.74-6t-10.4,3.68q-5.28,4.51-5.26,9.82t4.8,10.9q4.55,5.31,9,6.34a8.8,8.8,0,0,0,8.07-2.1l-6.26-7.33a3.61,3.61,0,0,1-2.9.92,5.37,5.37,0,0,1-3.18-2.11,5.08,5.08,0,0,1-1.51-4,6.31,6.31,0,0,1,2.44-3.77l12.86,15.06,1.29-1.1q5.32-4.56,5.43-9.67t-4.61-10.63Zm-4.57,4.43a4.38,4.38,0,0,1,1.21,3.27,4.48,4.48,0,0,1-1.7,3l-6.3-7.38q3.74-2.48,6.79,1.1Z"/><path class="cls-1" d="M624.88,354.91a9.49,9.49,0,0,0-8.92-3.15l2.16-3.18-5.54-5.91-26.45,24.79,6.8,7.26,8.94-8.38a9.68,9.68,0,0,0,2.87,7.45q3.66,3.9,8.18,3.64t9.48-4.91q5-4.68,5.57-9.19t-3.09-8.42Zm-7.48,2.77q2.94,3.13-.78,6.62l-1.94,1.82q-3.75,3.51-6.69.38a3.72,3.72,0,0,1-1.11-3.48,6.88,6.88,0,0,1,2.22-3.59l1.2-1.13a6.85,6.85,0,0,1,3.71-2,3.79,3.79,0,0,1,3.39,1.35Z"/><path class="cls-1" d="M644.14,370.89l4.7-4.85-7.14-6.92L637,364l7.14,6.93ZM623.6,392.06,642,373.11l-7.14-6.92-18.38,18.95,7.14,6.92Z"/><path class="cls-1" d="M655.42,384.11a19.5,19.5,0,0,0-8.59-4.7q-4.12-.86-7.29,2.82a6.28,6.28,0,0,0-1.76,4.65,9.57,9.57,0,0,0,1.45,4.4,48.68,48.68,0,0,0,3.56,4.79,28.32,28.32,0,0,1,2.6,3.49,1.59,1.59,0,0,1,0,1.95q-1.27,1.47-4.42-1.24a6.52,6.52,0,0,1-1.77-2.42,2.52,2.52,0,0,1,.47-2.73l.13-.15-7-6a7.26,7.26,0,0,0-1.92,5.21,11.62,11.62,0,0,0,1.85,5.59,22,22,0,0,0,4.36,5A19.82,19.82,0,0,0,646,409.6q4.26.84,7.56-3a6.5,6.5,0,0,0,1.83-4.8,9.65,9.65,0,0,0-1.54-4.5,44.68,44.68,0,0,0-3.66-4.71,30,30,0,0,1-2.55-3.32c-.46-.75-.48-1.36-.07-1.84q1.11-1.29,3.84,1.07a4.62,4.62,0,0,1,1.38,1.85,2.1,2.1,0,0,1-.36,2.4l7,6a6.9,6.9,0,0,0,1.41-7.27,18,18,0,0,0-5.44-7.43Z"/><path class="cls-1" d="M678.21,401.59q-5.72-4-11-3.33t-9.1,6.23c-2.58,3.72-3.45,7.3-2.62,10.71s3.17,6.45,7,9.08,7.47,3.74,11,3.32,6.55-2.49,9.11-6.19,3.42-7.27,2.58-10.71-3.17-6.48-7-9.11Zm-3.84,5.55q4.07,2.81.86,7.46l-1.63,2.34q-3.18,4.6-7.25,1.79t-.85-7.39l1.62-2.34q3.23-4.65,7.25-1.86Z"/><path class="cls-1" d="M703.91,446.34l15.7-32.67-9-4.31-5.33,11.09a9.66,9.66,0,0,0-5.35-6q-4.82-2.31-8.94-.44t-7.06,8q-3,6.18-1.87,10.58t5.92,6.73a9.5,9.5,0,0,0,9.46-.28l-.86,3.75,7.3,3.5Zm-4.34-23.88a3.78,3.78,0,0,1,2.3,2.85,7,7,0,0,1-.78,4.15l-.71,1.49a6.82,6.82,0,0,1-2.75,3.17,3.79,3.79,0,0,1-3.64,0q-3.88-1.86-1.67-6.46l1.15-2.39q2.22-4.64,6.1-2.78Z"/><path class="cls-1" d="M729.38,425.45q-6.74-1.69-11.42.73t-6.35,9q-1.7,6.74,1.39,11.05t10.22,6.1q6.79,1.71,11,0a8.81,8.81,0,0,0,5.37-6.39l-9.36-2.35A3.57,3.57,0,0,1,728.4,446a5.49,5.49,0,0,1-3.82.12,5.12,5.12,0,0,1-3.55-2.39,6.35,6.35,0,0,1-.19-4.48l19.2,4.83.42-1.65q1.71-6.78-1.17-11t-9.91-6Zm-1.16,6.26a4.33,4.33,0,0,1,2.88,2,4.48,4.48,0,0,1,.35,3.44L722,434.74q1.62-4.19,6.18-3Z"/><path class="cls-1" d="M775.75,426.13q-8-.9-11.81,3.27t-4.74,12.78q-1,8.6,1.78,13.51t10.79,5.82q8,.9,11.77-3.28t4.73-12.78c.65-5.73.05-10.23-1.77-13.51s-5.41-5.21-10.75-5.81Zm-.75,6.71a3.78,3.78,0,0,1,3.41,2.37c.54,1.39.65,3.6.3,6.65l-.55,4.92c-.34,3.05-.94,5.19-1.78,6.44a3.78,3.78,0,0,1-3.85,1.58,3.89,3.89,0,0,1-3.46-2.4c-.58-1.41-.69-3.64-.35-6.68l.55-4.92q.51-4.53,1.83-6.39a3.88,3.88,0,0,1,3.9-1.57Z"/><path class="cls-1" d="M811.93,455.75l.76-26.74-3.35-.1a36.85,36.85,0,0,1-7.35,3.42,25.81,25.81,0,0,1-7.55,1.56l-.16,5.8,8.14.23L802,455.46l-8.15-.23-.22,7.7,25.94.74.22-7.7-7.84-.22Z"/><polygon class="cls-1" points="835.35 463.32 835.05 453.38 824.46 453.7 824.76 463.64 835.35 463.32 835.35 463.32"/></g></g></svg>